<svg xmlns="http://www.w3.org/2000/svg" viewBox="0 0 100.74 56.86"><g><g><path d="M0 56.66V.83C0 .09.2 0 .87 0h99.66l.2.19v56.47l-.2.19H.22Zm51-23.72h-5.66c-1.06 0-1 0-.61-.91s.93-1.64 1.4-2.45c1.47-2.48 2.88-5 4.35-7.47.59-1 .52-1.18-.56-1.73A14 14 0 0 0 42.56 19a13.29 13.29 0 0 0-9.81 5 13.68 13.68 0 0 0-2.95 12.08A14.27 14.27 0 0 0 43 47.22a13.78 13.78 0 0 0 8.2-2.29 13.68 13.68 0 0 0 6.51-11.06c.06-.74-.21-1-.94-.95-1.88.08-3.77.02-5.77.02Zm13.54 0h6c.59 0 .8-.13.45-.72-1.66-2.83-3.29-5.68-4.94-8.51-1.54-2.63-3.09-5.24-4.63-7.86-1.07-1.82-2.15-3.64-3.21-5.47-.34-.6-.54-.59-.89 0-1.74 3-3.52 6-5.28 9-.92 1.57-.87 1.54.49 2.66a14.51 14.51 0 0 1 5.21 9.7c.09.9.44 1.26 1.42 1.2 1.84-.08 3.61-.01 5.41-.01Z" style="fill:#e6e6e5"/><path d="m100.73.21-.2-.19c.17-.02.24-.02.2.19ZM0 56.66l.2.19c-.15.04-.2-.02-.2-.19ZM100.53 56.85l.2-.19c.04.17-.03.23-.2.19Z" style="fill:#fff"/><path d="M51 32.94h5.78c.73 0 1 .21.94.95a13.68 13.68 0 0 1-6.51 11.06A13.78 13.78 0 0 1 43 47.22a14.27 14.27 0 0 1-13.2-11.14A13.68 13.68 0 0 1 32.75 24a13.29 13.29 0 0 1 9.81-5 14 14 0 0 1 7.36 1.37c1.08.55 1.15.72.56 1.73-1.47 2.48-2.88 5-4.35 7.47-.47.81-1 1.59-1.4 2.45s-.45.91.61.91ZM64.57 32.93c-1.8 0-3.6-.07-5.39 0-1 .06-1.33-.3-1.42-1.2a14.51 14.51 0 0 0-5.21-9.7c-1.36-1.12-1.41-1.09-.49-2.66 1.76-3 3.54-6 5.28-9 .35-.6.55-.61.89 0 1.06 1.83 2.14 3.65 3.21 5.47 1.54 2.62 3.09 5.23 4.63 7.86 1.65 2.83 3.28 5.68 4.94 8.51.35.59.14.72-.45.72-2-.01-3.99 0-5.99 0Z" style="fill:#b9b9b9"/></g></g></svg>