<svg width="248" height="242" viewBox="0 0 248 242" fill="none" xmlns="http://www.w3.org/2000/svg">
<g clip-path="url(#clip0_181_3165)">
<path d="M210.972 235.739C211.547 237.901 213.057 239.702 214.88 241.013C215.177 241.228 215.483 241.427 215.792 241.613C215.887 241.669 215.982 241.729 216.081 241.78C216.188 241.844 216.295 241.904 216.402 241.959H224.976C225.13 241.645 225.281 241.327 225.432 241.013C229.106 233.27 231.686 224.916 231.246 216.406C231.072 213.105 230.38 209.852 229.197 206.767C226.843 200.618 222.546 195.296 216.636 192.617C216.489 192.549 216.335 192.482 216.184 192.418C216.232 192.589 216.279 192.756 216.327 192.927C216.961 195.217 217.409 197.556 217.667 199.919C217.69 200.101 217.71 200.284 217.726 200.471C218.289 206.17 217.789 211.924 216.252 217.439C216.248 217.451 216.244 217.467 216.24 217.479C215.903 218.699 215.512 219.901 215.066 221.084C214.718 222.018 214.341 222.94 213.929 223.846C212.209 227.65 209.902 231.704 210.972 235.739Z" fill="#E6E6E6"/>
<path d="M216.077 192.597C216.16 192.708 216.244 192.816 216.327 192.927C218.068 195.241 219.546 197.742 220.735 200.384C220.798 200.515 220.857 200.646 220.909 200.781C222.537 204.47 223.583 208.391 224.009 212.403C224.013 212.431 224.016 212.459 224.017 212.487C224.116 213.425 224.175 214.371 224.199 215.317C224.287 217.09 224.096 218.866 223.632 220.579C223.209 221.978 222.468 223.26 221.468 224.323C221.369 224.431 221.27 224.538 221.163 224.641C221.083 224.725 220.996 224.808 220.913 224.888C220.112 225.655 219.236 226.366 218.483 227.189C218.138 227.558 217.826 227.957 217.552 228.382C217.114 229.093 216.83 229.889 216.721 230.718C216.612 231.547 216.679 232.39 216.918 233.191C217.457 235.202 218.689 236.899 219.95 238.517C220.58 239.328 221.23 240.147 221.793 241.013C221.999 241.323 222.189 241.637 222.364 241.959H222.863C222.697 241.637 222.514 241.323 222.316 241.013C220.869 238.728 218.812 236.764 217.746 234.248C217.025 232.551 216.806 230.627 217.718 228.962C217.985 228.478 218.309 228.027 218.681 227.618C219.407 226.796 220.275 226.092 221.064 225.349C221.262 225.162 221.456 224.971 221.642 224.772C222.63 223.766 223.392 222.56 223.878 221.235C224.428 219.552 224.688 217.787 224.647 216.016C224.647 214.887 224.587 213.751 224.476 212.622C224.464 212.479 224.449 212.332 224.433 212.185C223.622 205.081 220.93 198.325 216.636 192.617C216.557 192.506 216.474 192.398 216.39 192.291C216.22 192.068 215.907 192.378 216.077 192.597Z" fill="white"/>
<path d="M224.273 212.659C225.646 212.428 226.892 211.715 227.789 210.647C228.686 209.58 229.175 208.227 229.17 206.831C229.169 206.774 229.146 206.72 229.106 206.68C229.066 206.639 229.012 206.616 228.955 206.615C228.899 206.613 228.844 206.634 228.802 206.673C228.76 206.712 228.735 206.765 228.732 206.822C228.74 208.122 228.284 209.382 227.446 210.374C226.609 211.366 225.445 212.026 224.166 212.234C223.888 212.279 223.996 212.705 224.273 212.659V212.659Z" fill="white"/>
<path d="M221.578 224.403C219.245 222.768 217.613 220.312 217.006 217.524C216.947 217.248 216.522 217.355 216.582 217.631C217.219 220.531 218.923 223.084 221.354 224.78C221.585 224.942 221.809 224.564 221.578 224.403V224.403Z" fill="white"/>
<path d="M220.866 200.337C220.353 200.538 219.799 200.607 219.253 200.54C218.707 200.472 218.186 200.27 217.737 199.951C217.507 199.787 217.284 200.165 217.513 200.328C218.01 200.678 218.586 200.901 219.189 200.977C219.792 201.053 220.405 200.979 220.973 200.763C221.028 200.747 221.075 200.71 221.105 200.661C221.134 200.611 221.144 200.553 221.132 200.496C221.117 200.44 221.081 200.392 221.031 200.362C220.982 200.332 220.922 200.323 220.866 200.337Z" fill="white"/>
<path d="M186.341 207.967C186.48 208.075 186.623 208.182 186.761 208.293C188.643 209.737 190.405 211.333 192.029 213.063C192.156 213.194 192.283 213.329 192.406 213.464L192.41 213.468C196.261 217.661 199.306 222.531 201.392 227.833L201.403 227.869C201.407 227.881 201.411 227.889 201.415 227.901C202.242 230.023 202.908 232.205 203.409 234.427C203.893 236.597 204.289 238.923 205.046 241.013C205.161 241.335 205.288 241.653 205.423 241.959H223.045C222.986 241.645 222.923 241.327 222.859 241.013C221.963 236.408 220.562 231.915 218.681 227.618C218.618 227.475 218.555 227.332 218.483 227.189C217.513 225.066 216.371 223.025 215.07 221.088C215.07 221.087 215.07 221.087 215.07 221.086C215.07 221.086 215.07 221.085 215.069 221.085C215.069 221.085 215.068 221.084 215.068 221.084C215.068 221.084 215.067 221.084 215.066 221.084C214.352 220.027 213.585 219.007 212.767 218.027C210.648 215.498 208.144 213.32 205.347 211.572C205.331 211.561 205.312 211.553 205.296 211.541C199.731 208.079 193.135 206.429 186.829 207.856H186.825C186.662 207.892 186.504 207.928 186.341 207.967Z" fill="#E6E6E6"/>
<path d="M186.361 208.178C186.496 208.214 186.631 208.254 186.761 208.293C189.539 209.089 192.221 210.192 194.756 211.58C194.883 211.648 195.01 211.719 195.137 211.791C198.641 213.752 201.822 216.245 204.566 219.18C204.569 219.182 204.57 219.185 204.57 219.188C204.602 219.22 204.638 219.256 204.666 219.287C205.3 219.971 205.91 220.682 206.489 221.414C207.621 222.777 208.533 224.31 209.192 225.957C209.696 227.329 209.874 228.8 209.711 230.254C209.7 230.401 209.68 230.544 209.66 230.691C209.644 230.806 209.628 230.921 209.608 231.041C209.347 232.635 208.895 234.232 209.022 235.858C209.099 236.691 209.351 237.498 209.762 238.226C210.172 238.955 210.732 239.587 211.404 240.083C211.861 240.437 212.349 240.749 212.863 241.013C213.597 241.393 214.362 241.709 215.15 241.959H216.707C216.497 241.9 216.291 241.84 216.081 241.78C215.336 241.569 214.604 241.313 213.889 241.013C213.481 240.842 213.084 240.646 212.7 240.425C211.107 239.507 209.779 238.1 209.501 236.22C209.26 234.574 209.727 232.929 210.005 231.319C210.052 231.041 210.096 230.766 210.12 230.492C210.309 229.098 210.194 227.68 209.783 226.335C209.212 224.657 208.36 223.089 207.262 221.7C206.583 220.796 205.858 219.927 205.09 219.097C204.995 218.989 204.895 218.882 204.792 218.775C201.99 215.818 198.754 213.308 195.196 211.33H195.192C192.547 209.853 189.741 208.688 186.829 207.856H186.825C186.694 207.816 186.559 207.777 186.428 207.741C186.155 207.669 186.091 208.102 186.361 208.178Z" fill="white"/>
<path d="M204.949 219.247C205.907 218.234 206.473 216.912 206.549 215.518C206.624 214.124 206.203 212.749 205.36 211.638C205.189 211.413 204.833 211.67 205.005 211.894C205.791 212.928 206.184 214.209 206.111 215.507C206.038 216.805 205.505 218.034 204.608 218.972C204.413 219.176 204.756 219.45 204.949 219.247Z" fill="white"/>
<path d="M209.849 230.251C207.005 230.354 204.227 229.378 202.068 227.518C201.854 227.334 201.58 227.676 201.794 227.86C204.043 229.792 206.936 230.801 209.896 230.688C210.178 230.677 210.129 230.24 209.849 230.251Z" fill="white"/>
<path d="M194.831 211.466C194.542 211.935 194.141 212.325 193.664 212.601C193.188 212.877 192.651 213.03 192.101 213.046C191.818 213.054 191.867 213.49 192.148 213.483C192.755 213.462 193.348 213.292 193.876 212.989C194.403 212.685 194.848 212.257 195.172 211.741C195.206 211.695 195.222 211.637 195.216 211.58C195.21 211.523 195.182 211.47 195.138 211.432C195.093 211.396 195.035 211.379 194.978 211.385C194.92 211.392 194.867 211.421 194.831 211.466Z" fill="white"/>
<path d="M43.0726 231.136C42.0726 234.898 39.4449 238.031 36.2724 240.313C35.7552 240.687 35.2242 241.032 34.6862 241.358C34.5207 241.454 34.3552 241.558 34.1827 241.648C33.9965 241.759 33.8103 241.862 33.6241 241.959H18.7065C18.4376 241.413 18.1755 240.86 17.9134 240.313C11.5202 226.841 7.0304 212.304 7.79591 197.498C8.09962 191.754 9.30287 186.095 11.3615 180.727C15.4581 170.028 22.9342 160.768 33.2172 156.106C33.4723 155.989 33.7413 155.871 34.0034 155.761C33.9206 156.058 33.8379 156.348 33.7551 156.646C32.6519 160.631 31.8724 164.699 31.424 168.811C31.3827 169.129 31.3482 169.447 31.3206 169.772C30.3408 179.688 31.2108 189.699 33.8862 199.296C33.8931 199.316 33.9 199.344 33.9069 199.365C34.4931 201.488 35.1736 203.579 35.9483 205.637C36.5552 207.263 37.2104 208.867 37.9277 210.444C40.9208 217.062 44.9347 224.116 43.0726 231.136Z" fill="#E6E6E6"/>
<path d="M34.1897 156.072C34.0448 156.266 33.9 156.452 33.7552 156.646C30.726 160.671 28.1538 165.023 26.086 169.62C25.9757 169.848 25.8723 170.076 25.7826 170.311C22.9494 176.731 21.1299 183.553 20.3894 190.533C20.3813 190.581 20.3767 190.63 20.3756 190.679C20.2031 192.311 20.0997 193.957 20.0583 195.603C19.9756 198.68 20.1687 201.799 21.0445 204.759C21.7801 207.194 23.0692 209.424 24.8101 211.274C24.9825 211.461 25.155 211.647 25.3412 211.827C25.4791 211.972 25.6308 212.118 25.7757 212.256C27.1688 213.591 28.693 214.829 30.0034 216.26C30.604 216.902 31.1463 217.596 31.6241 218.335C33.231 220.859 33.5 223.84 32.7276 226.703C31.7896 230.202 29.6447 233.155 27.4516 235.97C26.355 237.381 25.224 238.806 24.2446 240.313C23.886 240.853 23.5549 241.399 23.2515 241.959H22.3825C22.6722 241.399 22.9894 240.853 23.3343 240.313C25.8515 236.337 29.4309 232.92 31.2861 228.543C32.5413 225.59 32.9207 222.242 31.3344 219.345C30.8695 218.502 30.307 217.717 29.6585 217.007C28.3964 215.575 26.886 214.351 25.5136 213.058C25.1688 212.733 24.8308 212.401 24.5067 212.055C22.7881 210.305 21.462 208.206 20.617 205.9C19.5893 203.003 19.279 199.877 19.279 196.82C19.279 194.856 19.3824 192.878 19.5755 190.914C19.5962 190.665 19.6238 190.409 19.6514 190.153C21.0618 177.793 25.7458 166.038 33.2172 156.106C33.3551 155.913 33.5 155.726 33.6448 155.539C33.9414 155.152 34.4862 155.691 34.1897 156.072Z" fill="white"/>
<path d="M19.9298 190.979C17.541 190.577 15.3726 189.336 13.8118 187.479C12.251 185.621 11.3996 183.268 11.4094 180.839C11.4108 180.74 11.4504 180.645 11.5199 180.575C11.5895 180.504 11.6835 180.464 11.7823 180.462C11.8811 180.459 11.9768 180.496 12.0493 180.563C12.1219 180.63 12.1656 180.723 12.1712 180.822C12.1579 183.084 12.9512 185.276 14.4081 187.003C15.865 188.729 17.8895 189.877 20.1161 190.238C20.5999 190.318 20.4108 191.058 19.9298 190.979Z" fill="white"/>
<path d="M24.6187 211.413C28.6772 208.568 31.5173 204.294 32.5728 199.443C32.677 198.962 33.4155 199.15 33.3114 199.63C32.2036 204.676 29.239 209.118 25.0092 212.069C24.6059 212.35 24.2175 211.692 24.6187 211.413L24.6187 211.413Z" fill="white"/>
<path d="M25.8579 169.539C26.7498 169.888 27.7142 170.009 28.6643 169.892C29.6145 169.774 30.5208 169.422 31.3017 168.867C31.7013 168.581 32.0893 169.239 31.6922 169.523C30.8266 170.132 29.8252 170.52 28.7757 170.652C27.7262 170.784 26.6604 170.656 25.6715 170.28C25.5753 170.252 25.4933 170.189 25.442 170.103C25.3907 170.016 25.374 169.914 25.3954 169.816C25.4205 169.718 25.4832 169.634 25.5698 169.582C25.6564 169.53 25.7599 169.515 25.8579 169.539Z" fill="white"/>
<path d="M85.9287 182.815C85.6873 183.002 85.4391 183.189 85.1977 183.382C81.9233 185.895 78.858 188.671 76.0319 191.681C75.8112 191.91 75.5906 192.145 75.3767 192.38L75.3698 192.387C68.669 199.681 63.3707 208.155 59.7419 217.38L59.7212 217.443C59.7143 217.463 59.7074 217.477 59.7005 217.498C58.2622 221.191 57.1026 224.987 56.2315 228.854C55.3901 232.63 54.7004 236.676 53.3831 240.313C53.1831 240.873 52.9624 241.427 52.728 241.959H22.0652C22.1686 241.413 22.279 240.86 22.3893 240.313C24.0307 232.298 26.3342 224.393 29.6585 217.007C29.7688 216.758 29.8792 216.509 30.0033 216.26C31.6922 212.566 33.6781 209.016 35.9414 205.644C35.9414 205.643 35.9415 205.642 35.9419 205.642C35.9422 205.641 35.9427 205.64 35.9433 205.639C35.944 205.639 35.9448 205.638 35.9456 205.638C35.9465 205.638 35.9474 205.637 35.9483 205.637C37.191 203.798 38.5261 202.023 39.9484 200.319C43.6368 195.919 47.9938 192.128 52.859 189.088C52.8866 189.067 52.9211 189.053 52.9487 189.033C62.6317 183.009 74.1078 180.139 85.0804 182.622H85.0873C85.3701 182.684 85.646 182.746 85.9287 182.815Z" fill="#E6E6E6"/>
<path d="M85.8942 183.182C85.6598 183.244 85.4253 183.313 85.1977 183.382C80.3642 184.767 75.6988 186.685 71.287 189.102C71.0663 189.219 70.8456 189.344 70.6249 189.468C64.528 192.881 58.9936 197.217 54.2177 202.325C54.2139 202.328 54.2115 202.333 54.2108 202.339C54.1556 202.394 54.0935 202.456 54.0452 202.511C52.9418 203.701 51.8797 204.939 50.8728 206.211C48.9693 208.618 47.2451 211.225 46.1692 214.116C45.2928 216.504 44.9835 219.064 45.2658 221.592C45.2864 221.848 45.3209 222.097 45.3554 222.353C45.383 222.553 45.4106 222.754 45.4451 222.961C45.9002 225.735 46.6865 228.515 46.4658 231.343C46.2313 234.331 44.6588 236.876 42.3208 238.695C41.526 239.311 40.6765 239.853 39.7829 240.313C38.5052 240.974 37.1739 241.524 35.8034 241.959H33.093C33.4586 241.855 33.8172 241.752 34.1827 241.648C35.4798 241.281 36.7534 240.835 37.9966 240.313C38.7067 240.015 39.3977 239.674 40.0656 239.29C42.8381 237.692 45.1485 235.244 45.6312 231.973C46.052 229.11 45.2381 226.246 44.7554 223.446C44.6726 222.961 44.5967 222.484 44.5554 222.007C44.2261 219.582 44.4261 217.113 45.1416 214.773C46.0588 211.834 47.6865 209.158 49.5279 206.709C50.7097 205.136 51.9711 203.624 53.3073 202.179C53.4728 201.993 53.6452 201.806 53.8245 201.619C58.7009 196.475 64.3313 192.107 70.5215 188.666H70.5284C75.1311 186.097 80.014 184.068 85.0804 182.622H85.0873C85.3149 182.552 85.5494 182.483 85.777 182.421C86.2529 182.297 86.3632 183.05 85.8942 183.182Z" fill="white"/>
<path d="M53.5517 202.442C51.886 200.679 50.8996 198.379 50.7687 195.953C50.6378 193.528 51.3709 191.135 52.8371 189.201C53.1351 188.811 53.7538 189.257 53.4554 189.648C52.0867 191.446 51.404 193.675 51.5305 195.933C51.657 198.192 52.5844 200.33 54.1452 201.963C54.484 202.318 53.8886 202.795 53.5517 202.442Z" fill="white"/>
<path d="M45.027 221.588C49.9754 221.767 54.8093 220.069 58.5647 216.833C58.9366 216.512 59.4137 217.107 59.0423 217.428C55.128 220.788 50.0941 222.545 44.9451 222.347C44.4543 222.328 44.5389 221.569 45.027 221.588Z" fill="white"/>
<path d="M71.1578 188.902C71.6605 189.719 72.3577 190.398 73.1868 190.878C74.0159 191.358 74.9509 191.624 75.9079 191.652C76.3986 191.665 76.3134 192.425 75.8259 192.412C74.7687 192.376 73.7365 192.081 72.8193 191.552C71.9021 191.024 71.1279 190.279 70.5643 189.381C70.5041 189.301 70.4766 189.201 70.4873 189.101C70.4981 189.001 70.5463 188.909 70.6222 188.844C70.7011 188.781 70.8016 188.752 70.9019 188.763C71.0022 188.774 71.0941 188.824 71.1577 188.902L71.1578 188.902Z" fill="white"/>
<path d="M248 241.527C248 241.589 247.988 241.651 247.964 241.708C247.941 241.766 247.906 241.818 247.862 241.862C247.818 241.906 247.766 241.941 247.709 241.964C247.652 241.988 247.59 242 247.528 242H0.471687C0.346588 242 0.226611 241.95 0.138153 241.861C0.0496947 241.773 0 241.652 0 241.527C0 241.402 0.0496947 241.281 0.138153 241.193C0.226611 241.104 0.346588 241.054 0.471687 241.054H247.528C247.59 241.054 247.652 241.066 247.709 241.09C247.766 241.113 247.818 241.148 247.862 241.192C247.906 241.236 247.941 241.288 247.964 241.346C247.988 241.403 248 241.465 248 241.527Z" fill="#CCCCCC"/>
<path d="M152.641 65.1792H121.724C120.349 62.6133 118.272 60.4243 121.724 55.2696C121.724 51.8478 123.048 48.5595 125.417 46.0972C127.787 43.6348 131.017 42.1905 134.427 42.0684C141.115 40.0639 145.931 44.1341 147.24 50.6544L152.641 65.1792Z" fill="#2F2E41"/>
<path d="M91.3412 70.5639C91.9034 70.6259 92.4452 70.8108 92.9284 71.1055C93.4116 71.4002 93.8245 71.7976 94.138 72.2696C94.4515 72.7417 94.658 73.2769 94.7429 73.8376C94.8278 74.3984 94.7891 74.9709 94.6294 75.515L118.624 95.5268L111.957 98.1018L89.5484 78.0989C88.6547 77.7693 87.9126 77.1225 87.4627 76.281C87.0128 75.4394 86.8863 74.4616 87.1073 73.5329C87.3283 72.6041 87.8813 71.7889 88.6617 71.2417C89.442 70.6944 90.3954 70.4533 91.3412 70.5639Z" fill="#FFB6B6"/>
<path d="M119.135 104.168C113.818 104.17 93.0742 82.3722 92.169 81.4181L91.9389 81.1755L99.6177 79.1155L118.039 92.5095L124.754 81.1134C125.497 79.8567 126.608 78.861 127.937 78.2626C129.266 77.6641 130.747 77.4923 132.177 77.7706C133.442 78.0185 134.616 78.6096 135.57 79.4798C136.524 80.3499 137.222 81.4658 137.587 82.7059C137.953 83.946 137.973 85.2628 137.644 86.5133C137.315 87.7637 136.651 88.8998 135.723 89.798L123.022 102.093C122.045 103.036 120.857 103.729 119.556 104.113C119.419 104.151 119.277 104.17 119.135 104.168Z" fill="#0028FF"/>
<path d="M119.544 101.15L122.12 110.889L143.525 115.643L142.137 110.69L146.127 106.429L141.741 99.1631L119.544 101.15Z" fill="#FFB8B8"/>
<path d="M117.65 233.983H113.469L111.479 217.809H117.65V233.983Z" fill="#FFB8B8"/>
<path d="M119.858 241.249H116.859L116.323 238.41L114.952 241.249H106.998C106.617 241.249 106.246 241.127 105.939 240.9C105.632 240.674 105.405 240.355 105.291 239.99C105.178 239.625 105.184 239.233 105.308 238.871C105.432 238.51 105.669 238.198 105.982 237.981L112.334 233.582V230.711L119.015 231.111L119.858 241.249Z" fill="#2F2E41"/>
<path d="M170.063 230.421L166.178 231.972L158.363 217.682L164.097 215.393L170.063 230.421Z" fill="#FFB8B8"/>
<path d="M174.793 236.353L172.007 237.465L170.463 235.026L170.236 238.172L162.846 241.122C162.492 241.263 162.102 241.287 161.733 241.191C161.364 241.094 161.035 240.882 160.795 240.585C160.555 240.288 160.416 239.922 160.399 239.54C160.381 239.158 160.485 238.78 160.697 238.462L164.976 232.019L163.917 229.352L170.272 227.246L174.793 236.353Z" fill="#2F2E41"/>
<path d="M146.041 107.56L145.643 107.214C145.527 107.113 133.793 97.1883 119.161 106.455L118.687 106.755L115.69 93.5326C115.341 92.0123 115.421 90.4247 115.919 88.947C116.418 87.4692 117.316 86.1595 118.514 85.164L129.078 76.3505L132.783 74.4928L132.313 71.4265C132.222 70.8236 132.34 70.2078 132.648 69.6816C132.955 69.1555 133.433 68.7506 134.001 68.5346L139.758 66.3698C140.402 66.1246 141.116 66.1415 141.747 66.4168C142.378 66.6921 142.877 67.204 143.137 67.8432L143.748 69.3237L145.054 68.8627C145.846 68.573 146.688 68.4433 147.53 68.4811C148.373 68.5188 149.199 68.7233 149.963 69.0828C150.728 69.4551 151.407 69.9843 151.956 70.6362C152.505 71.2881 152.911 72.0483 153.149 72.8676C155.395 80.4844 154.792 88.6613 151.455 95.8647L146.041 107.56Z" fill="#0028FF"/>
<path d="M119.264 226.553H110.613L113.004 185.8L111.256 158.178L111.26 158.156L117.778 118.559C118.291 115.437 119.676 112.525 121.774 110.161L121.853 110.071L143.667 115.473L145.86 120.488C153.349 124.955 155.714 150.141 155.811 151.214L158.982 182.612L166.738 221.094L161.276 224.042L161.185 223.86L143.942 189.479L133.053 153.221L126.08 185.854L119.264 226.553Z" fill="#2F2E41"/>
<path d="M154.155 140.385C153.756 139.983 153.45 139.498 153.258 138.965C153.066 138.431 152.993 137.862 153.045 137.297C153.096 136.732 153.27 136.186 153.555 135.696C153.84 135.206 154.228 134.784 154.693 134.461L148.533 103.782L155.335 105.972L160.266 135.646C160.756 136.465 160.929 137.436 160.752 138.374C160.576 139.313 160.063 140.153 159.309 140.738C158.556 141.322 157.615 141.608 156.665 141.544C155.715 141.479 154.822 141.066 154.155 140.385V140.385Z" fill="#FFB6B6"/>
<path d="M145.06 75.4753L149.28 72.2806C149.28 72.2806 153.003 72.0163 153.663 78.749C154.322 85.4818 155.676 98.6028 155.676 98.6028L162.134 128.597L153.194 130.565L146.277 98.1957L142.128 88.5832L145.06 75.4753Z" fill="#0028FF"/>
<path d="M132.435 64.8256C138.122 64.8256 142.732 60.203 142.732 54.5007C142.732 48.7984 138.122 44.1758 132.435 44.1758C126.749 44.1758 122.139 48.7984 122.139 54.5007C122.139 60.203 126.749 64.8256 132.435 64.8256Z" fill="#FFB8B8"/>
<path d="M138.315 44.4791C136.537 42.7141 134.135 41.7254 131.633 41.7284H129.651C127.128 41.7284 124.709 42.7334 122.925 44.5224C121.141 46.3113 120.138 48.7377 120.138 51.2677V51.2677C121.869 52.7724 130.249 52.4634 135.201 52.0626C134.846 57.2352 130.464 62.3178 131.633 65.1792H151.452V63.1919C153.149 54.4594 146.813 47.1753 138.315 44.4791Z" fill="#2F2E41"/>
<path d="M48.9891 179.055C52.4917 179.055 55.3311 176.208 55.3311 172.696C55.3311 169.183 52.4917 166.336 48.9891 166.336C45.4865 166.336 42.6471 169.183 42.6471 172.696C42.6471 176.208 45.4865 179.055 48.9891 179.055Z" fill="#F2F2F2"/>
<path d="M205.359 203.897C208.205 203.897 210.512 201.584 210.512 198.73C210.512 195.876 208.205 193.563 205.359 193.563C202.513 193.563 200.206 195.876 200.206 198.73C200.206 201.584 202.513 203.897 205.359 203.897Z" fill="#F2F2F2"/>
<path d="M181.18 96.1821C184.026 96.1821 186.333 93.8687 186.333 91.015C186.333 88.1612 184.026 85.8478 181.18 85.8478C178.334 85.8478 176.027 88.1612 176.027 91.015C176.027 93.8687 178.334 96.1821 181.18 96.1821Z" fill="#F2F2F2"/>
<path d="M75.6835 45.2063C78.7227 38.1466 81.179 30.1458 79.2749 22.4408C77.7847 16.411 73.5151 10.6304 67.2667 9.08892C64.0518 8.34358 60.6819 8.67392 57.6718 10.0295C54.6616 11.385 52.1767 13.6913 50.5965 16.5961C49.0473 19.5344 48.43 22.8772 48.8272 26.1769C49.2348 29.4545 50.6575 33.0633 53.6533 34.7811C56.3881 36.3492 60.2013 35.9135 61.767 32.9378C63.0833 30.4363 62.571 27.2221 60.8428 25.0574C58.7342 22.4163 55.3219 21.2255 52.11 20.6367C48.7339 20.0145 45.2788 19.9527 41.8828 20.454C35.2029 21.4468 28.889 24.8564 25.0694 30.5399C21.5395 35.7923 20.21 42.7518 22.5587 48.7528C24.9002 54.7354 30.2671 58.9612 36.2007 61.0441C43.4811 63.5997 51.4796 62.689 58.7584 60.6201C60.6747 60.0754 62.5651 59.4441 64.4368 58.7619C65.1504 58.5018 64.8423 57.349 64.1207 57.6121C57.0282 60.1974 49.4192 62.1268 41.8257 61.1541C35.9622 60.403 30.1864 57.6243 26.3987 52.9983C24.5405 50.7416 23.2985 48.0398 22.7944 45.1573C22.3317 42.2173 22.5845 39.2087 23.5314 36.3878C24.5092 33.4714 26.1027 30.8009 28.2034 28.5583C30.304 26.3158 32.8623 24.554 35.7038 23.393C38.6679 22.1654 41.824 21.4693 45.0282 21.3367C48.2157 21.156 51.4104 21.527 54.4724 22.4332C57.2018 23.2814 60.1075 24.9362 61.0108 27.8402C61.7306 30.1538 61.1901 33.2353 58.6943 34.209C57.9658 34.4631 57.1905 34.5538 56.4232 34.4748C55.6559 34.3957 54.9153 34.1488 54.2535 33.7515C52.8829 32.8959 51.8036 31.6434 51.1581 30.1596C49.8992 27.3106 49.5728 24.135 50.2256 21.0884C50.8785 18.0419 52.477 15.2811 54.7919 13.2021C57.1391 11.2165 60.0689 10.054 63.1355 9.89166C66.1027 9.73724 69.034 10.599 71.4483 12.3354C73.8077 14.0923 75.6738 16.4313 76.865 19.1253C79.8352 25.5495 78.8564 32.8681 76.6756 39.3724C76.0811 41.1456 75.396 42.8871 74.6568 44.6044C74.3566 45.3016 75.3807 45.9096 75.6835 45.2063Z" fill="#F2F2F2"/>
<path d="M76.5371 68.359C83.3234 68.359 88.8248 62.8424 88.8248 56.0374C88.8248 49.2323 83.3234 43.7157 76.5371 43.7157C69.7509 43.7157 64.2495 49.2323 64.2495 56.0374C64.2495 62.8424 69.7509 68.359 76.5371 68.359Z" fill="white"/>
<path d="M87.6357 56.0374C87.6353 58.3327 86.9274 60.5718 85.6089 62.4481C84.2904 64.3244 82.4258 65.7462 80.2704 66.5188C78.1149 67.2914 75.774 67.377 73.5682 66.764C71.3623 66.1509 69.3994 64.8691 67.9481 63.0942C67.6157 62.6864 67.3131 62.2552 67.0426 61.8039C66.7603 61.3302 66.5078 60.8393 66.2866 60.334C66.0621 59.7804 65.8797 59.2105 65.7408 58.6293C65.6051 58.0974 65.5166 57.5544 65.4761 57.0068C65.278 54.7024 65.7988 52.3932 66.9667 50.3985C68.1346 48.4039 69.8917 46.8226 71.995 45.8731C73.5578 45.1723 75.2608 44.843 76.9714 44.9108C78.6819 44.9787 80.3537 45.4418 81.8563 46.2642C83.359 47.0866 84.6519 48.2459 85.6342 49.6518C86.6165 51.0577 87.2616 52.6721 87.5193 54.3692C87.5443 54.5236 87.5446 54.5307 87.5517 54.5908C87.5705 54.7495 87.586 54.9085 87.5982 55.0679C87.6232 55.3906 87.6339 55.7138 87.6357 56.0374C87.6442 57.5715 90.0224 57.5748 90.0139 56.0374C90.0223 52.5401 88.6821 49.1749 86.2736 46.6454C83.8651 44.1159 80.5747 42.618 77.0904 42.4647C73.606 42.3115 70.1975 43.5149 67.5774 45.8232C64.9573 48.1316 63.3285 51.3662 63.0315 54.8508C62.7346 58.3355 63.7924 61.8003 65.9839 64.521C68.1753 67.2417 71.3308 69.0076 74.7905 69.4495C78.2502 69.8914 81.7464 68.975 84.548 66.8921C87.3496 64.8091 89.2398 61.7208 89.8234 58.2727C89.9425 57.5334 90.0062 56.7862 90.0139 56.0374C90.0224 54.5025 87.6442 54.5007 87.6357 56.0374Z" fill="#F2F2F2"/>
<path d="M81.8549 52.6239L81.8536 52.621C82.3547 52.3182 82.7295 51.8436 82.9087 51.2851C82.4463 51.5605 81.9412 51.7564 81.4144 51.8646C81.1611 51.5268 80.8327 51.2531 80.4552 51.065C80.0778 50.877 79.6619 50.7799 79.2404 50.7815C78.4782 50.7816 77.7472 51.0854 77.2083 51.6259C76.6694 52.1665 76.3667 52.8996 76.3669 53.664L76.3671 53.7039C74.7581 53.4832 73.293 52.6574 72.2685 51.3938C72.2104 51.3223 72.1322 51.27 72.0442 51.2435C71.9561 51.2171 71.8621 51.2177 71.7744 51.2454C71.7137 51.2534 71.6557 51.2748 71.6043 51.3081C71.553 51.3414 71.5096 51.3857 71.4774 51.4378C71.238 51.8866 71.1321 52.3948 71.1722 52.9021C71.1716 53.3562 71.2801 53.8038 71.4885 54.2071C71.394 54.2252 71.3087 54.2758 71.2474 54.3501C71.186 54.4245 71.1525 54.5179 71.1525 54.6144V54.6456C71.152 55.0487 71.2374 55.4472 71.4031 55.8145C71.5687 56.1817 71.8107 56.5093 72.1128 56.7751L72.1026 56.7863C72.0551 56.8402 72.0223 56.9055 72.0076 56.9758C71.9929 57.0462 71.9966 57.1192 72.0185 57.1877C72.1412 57.5695 72.343 57.9209 72.6107 58.219C72.8784 58.517 73.206 58.7549 73.5719 58.917C72.8072 59.2394 71.971 59.3526 71.1485 59.2451C71.0695 59.2358 70.9896 59.2495 70.9182 59.2845C70.8468 59.3196 70.787 59.3745 70.7459 59.4427C70.7314 59.4595 70.7182 59.4773 70.7062 59.496C70.6737 59.5469 70.6514 59.6038 70.6407 59.6633C70.6301 59.7229 70.6312 59.784 70.6441 59.8431C70.6569 59.9022 70.6813 59.9582 70.7157 60.0079C70.7502 60.0576 70.7941 60.1 70.8449 60.1326C72.0225 60.8918 73.3933 61.2948 74.7933 61.2933C79.5412 61.2933 82.1222 57.3419 82.1222 53.9446C82.1221 53.781 82.11 53.6176 82.0859 53.4557C82.5341 53.1208 82.9219 52.7114 83.2326 52.2455L83.2336 52.2439C82.7953 52.4384 82.3307 52.5665 81.8549 52.6239Z" fill="#0028FF"/>
<path d="M76.9335 25.8294C83.7198 25.8294 89.2211 20.3129 89.2211 13.5078C89.2211 6.70273 83.7198 1.18613 76.9335 1.18613C70.1472 1.18613 64.6459 6.70273 64.6459 13.5078C64.6459 20.3129 70.1472 25.8294 76.9335 25.8294Z" fill="white"/>
<path d="M88.032 13.5078C88.0316 15.8031 87.3237 18.0422 86.0052 19.9185C84.6868 21.7948 82.8222 23.2166 80.6667 23.9892C78.5113 24.7618 76.1704 24.8474 73.9645 24.2344C71.7587 23.6213 69.7957 22.3396 68.3444 20.5646C68.0121 20.1568 67.7095 19.7256 67.439 19.2743C67.1566 18.8006 66.9041 18.3097 66.6829 17.8045C66.4585 17.2508 66.276 16.6809 66.1372 16.0997C66.0015 15.5678 65.9129 15.0248 65.8725 14.4773C65.6743 12.1728 66.1952 9.86358 67.3631 7.86897C68.5309 5.87436 70.2881 4.29298 72.3914 3.34357C73.9541 2.64276 75.6572 2.31342 77.3677 2.38125C79.0783 2.44908 80.7501 2.91224 82.2527 3.7346C83.7554 4.55697 85.0483 5.7163 86.0306 7.12219C87.0129 8.52808 87.658 10.1425 87.9157 11.8396C87.9406 11.994 87.9409 12.0011 87.9481 12.0612C87.9669 12.2199 87.9824 12.3789 87.9946 12.5383C88.0196 12.861 88.0302 13.1842 88.032 13.5078C88.0405 15.0419 90.4188 15.0452 90.4103 13.5078C90.4186 10.0105 89.0785 6.64529 86.67 4.11581C84.2614 1.58633 80.9711 0.0883904 77.4867 -0.0648359C74.0024 -0.218062 70.5939 0.98529 67.9738 3.29363C65.3537 5.60197 63.7249 8.83659 63.4279 12.3212C63.1309 15.8059 64.1887 19.2707 66.3802 21.9914C68.5717 24.7121 71.7271 26.478 75.1869 26.9199C78.6466 27.3618 82.1427 26.4454 84.9444 24.3625C87.746 22.2795 89.6362 19.1912 90.2198 15.7431C90.3389 15.0038 90.4026 14.2566 90.4103 13.5078C90.4188 11.9729 88.0405 11.9711 88.032 13.5078Z" fill="#F2F2F2"/>
<path d="M79.6829 14.8093L80.0587 12.3531H77.711C77.6319 10.3077 77.5527 9.16034 80.1576 9.43513V7.34721C76.256 6.48598 74.6286 8.46908 75.0666 12.3531H72.9167V14.8093H75.0666V20.5001C75.9349 20.7104 76.84 20.7163 77.711 20.5172V14.8093H79.6829Z" fill="#0028FF"/>
<path d="M29.3685 69.5514C36.1548 69.5514 41.6561 64.0349 41.6561 57.2298C41.6561 50.4247 36.1548 44.9081 29.3685 44.9081C22.5822 44.9081 17.0809 50.4247 17.0809 57.2298C17.0809 64.0349 22.5822 69.5514 29.3685 69.5514Z" fill="white"/>
<path d="M40.467 57.2298C40.4666 59.5251 39.7587 61.7642 38.4402 63.6405C37.1218 65.5168 35.2571 66.9386 33.1017 67.7112C30.9463 68.4838 28.6054 68.5694 26.3995 67.9564C24.1937 67.3433 22.2307 66.0616 20.7794 64.2866C20.4471 63.8788 20.1445 63.4476 19.874 62.9963C19.5916 62.5226 19.3391 62.0317 19.1179 61.5265C18.8935 60.9728 18.711 60.403 18.5721 59.8218C18.4365 59.2898 18.3479 58.7469 18.3075 58.1993C18.1093 55.8948 18.6302 53.5856 19.7981 51.591C20.9659 49.5964 22.7231 48.015 24.8264 47.0656C26.3891 46.3648 28.0922 46.0354 29.8027 46.1033C31.5133 46.1711 33.1851 46.6342 34.6877 47.4566C36.1904 48.279 37.4833 49.4383 38.4656 50.8442C39.4479 52.2501 40.093 53.8645 40.3507 55.5616C40.3756 55.716 40.3759 55.7231 40.383 55.7832C40.4019 55.9419 40.4174 56.1009 40.4296 56.2603C40.4546 56.583 40.4652 56.9062 40.467 57.2298C40.4755 58.7639 42.8538 58.7672 42.8453 57.2298C42.8536 53.7325 41.5135 50.3673 39.105 47.8378C36.6964 45.3083 33.4061 43.8104 29.9217 43.6572C26.4374 43.5039 23.0289 44.7073 20.4088 47.0156C17.7887 49.324 16.1599 52.5586 15.8629 56.0432C15.5659 59.5279 16.6237 62.9927 18.8152 65.7134C21.0067 68.4341 24.1621 70.2 27.6219 70.6419C31.0816 71.0838 34.5777 70.1675 37.3794 68.0845C40.181 66.0015 42.0712 62.9132 42.6548 59.4651C42.7739 58.7259 42.8376 57.9787 42.8453 57.2298C42.8538 55.6949 40.4755 55.6931 40.467 57.2298Z" fill="#F2F2F2"/>
<path d="M29.6615 63.2355C29.1969 63.2355 28.7389 63.222 28.3037 63.209C27.779 63.1932 27.2835 63.1789 26.8622 63.1907C26.4073 63.2152 25.9523 63.145 25.5258 62.9847C25.0993 62.8243 24.7105 62.5772 24.3838 62.2589C23.0792 60.9103 23.1529 58.4094 23.2123 56.3997C23.2278 55.8736 23.2425 55.3765 23.2305 54.9542C23.2062 54.4981 23.2761 54.042 23.436 53.6143C23.596 53.1867 23.8423 52.7968 24.1597 52.4692C25.5048 51.1609 27.9992 51.2355 30.003 51.2943C30.5278 51.3098 31.0235 51.3249 31.4445 51.3125L31.4561 51.3123C31.909 51.2891 32.3619 51.3598 32.7863 51.5202C33.2107 51.6806 33.5976 51.9271 33.9226 52.2443C35.2274 53.5929 35.1535 56.0938 35.0941 58.1035C35.0786 58.6297 35.0639 59.1267 35.0759 59.549C35.1003 60.0051 35.0303 60.4613 34.8704 60.889C34.7105 61.3167 34.4641 61.7066 34.1467 62.0342C33.0938 63.0583 31.3365 63.2355 29.6615 63.2355Z" fill="#0028FF"/>
<path d="M32.1467 54.9426C31.9671 54.9373 31.7967 54.8619 31.6717 54.7326C31.5467 54.6032 31.477 54.43 31.4774 54.2499C31.4778 54.0697 31.5482 53.8969 31.6738 53.768C31.7994 53.6392 31.9701 53.5646 32.1497 53.5601C32.3293 53.5654 32.4997 53.6408 32.6247 53.7701C32.7497 53.8995 32.8194 54.0727 32.819 54.2528C32.8186 54.433 32.7481 54.6058 32.6225 54.7347C32.497 54.8635 32.3262 54.9381 32.1467 54.9426Z" fill="#E6E6E6"/>
<path d="M29.1533 60.25C28.5619 60.25 27.9839 60.0742 27.4922 59.7448C27.0005 59.4153 26.6172 58.9471 26.3909 58.3993C26.1646 57.8514 26.1054 57.2486 26.2207 56.667C26.3361 56.0854 26.6208 55.5511 27.0389 55.1318C27.4571 54.7125 27.9898 54.4269 28.5698 54.3112C29.1498 54.1955 29.751 54.2549 30.2973 54.4818C30.8437 54.7087 31.3107 55.093 31.6392 55.586C31.9678 56.0791 32.1431 56.6587 32.1432 57.2517C32.1423 58.0466 31.827 58.8087 31.2665 59.3708C30.706 59.9329 29.946 60.2491 29.1533 60.25ZM29.1533 55.0485C28.7187 55.0485 28.2939 55.1777 27.9326 55.4198C27.5712 55.6619 27.2896 56.006 27.1233 56.4086C26.957 56.8112 26.9135 57.2542 26.9982 57.6816C27.083 58.109 27.2923 58.5016 27.5996 58.8098C27.9068 59.1179 28.2984 59.3277 28.7246 59.4128C29.1508 59.4978 29.5926 59.4541 29.9941 59.2874C30.3956 59.1206 30.7387 58.8382 30.9801 58.4758C31.2216 58.1135 31.3504 57.6875 31.3504 57.2517C31.3497 56.6676 31.118 56.1076 30.7061 55.6946C30.2943 55.2815 29.7358 55.0492 29.1533 55.0485Z" fill="#E6E6E6"/>
</g>
<defs>
<clipPath id="clip0_181_3165">
<rect width="248" height="242" fill="white"/>
</clipPath>
</defs>
</svg>
