<svg width="248" height="278" viewBox="0 0 248 278" fill="none" xmlns="http://www.w3.org/2000/svg">
<g clip-path="url(#clip0_181_2993)">
<path d="M140.593 214.204C199.912 214.204 248 166.253 248 107.102C248 47.9511 199.912 0 140.593 0C81.2735 0 33.1857 47.9511 33.1857 107.102C33.1857 166.253 81.2735 214.204 140.593 214.204Z" fill="#F2F2F2"/>
<path d="M210.782 47.8957H14.0266C13.6047 47.8867 13.27 47.5384 13.279 47.1177C13.2878 46.7096 13.6174 46.3809 14.0266 46.3722H210.782C211.204 46.3812 211.538 46.7295 211.529 47.1502C211.521 47.5583 211.191 47.887 210.782 47.8957Z" fill="#CACACA"/>
<path d="M143.728 73.5682H89.3372C85.2518 73.5682 81.94 76.8707 81.94 80.9444V80.9444C81.94 85.0182 85.2518 88.3206 89.3372 88.3206H143.728C147.813 88.3206 151.125 85.0182 151.125 80.9444C151.125 76.8707 147.813 73.5682 143.728 73.5682Z" fill="white"/>
<path d="M54.2004 103.073H178.865C182.95 103.073 186.262 106.375 186.262 110.449C186.262 114.523 182.95 117.825 178.865 117.825H54.2004C50.115 117.825 46.8032 114.523 46.8032 110.449C46.8032 106.375 50.115 103.073 54.2004 103.073Z" fill="white"/>
<path d="M54.2004 132.578H178.865C182.95 132.578 186.262 135.88 186.262 139.954C186.262 144.028 182.95 147.33 178.865 147.33H54.2004C50.115 147.33 46.8032 144.028 46.8032 139.954C46.8032 135.88 50.115 132.578 54.2004 132.578Z" fill="white"/>
<path d="M38.7515 277.351L38.4581 277.323C28.5036 276.299 19.5048 270.96 13.8524 262.725C12.3041 260.431 11.0517 257.951 10.1248 255.345L10.0357 255.096L10.2995 255.075C13.4486 254.822 16.6836 254.289 18.1207 254.036L8.85378 250.905L8.79648 250.631C8.24707 248.057 9.32342 245.408 11.5149 243.942C13.7122 242.406 16.6261 242.356 18.8744 243.818C19.8833 244.461 20.9386 245.097 21.9591 245.713C25.466 247.828 29.0923 250.015 31.8111 253.008C35.9338 257.637 37.7409 263.874 36.729 269.982L38.7515 277.351Z" fill="#F2F2F2"/>
<path d="M72.4365 272.756L77.0034 272.755L79.1765 255.188L72.4352 255.189L72.4365 272.756Z" fill="#A0616A"/>
<path d="M72.2754 277.507L86.3205 277.506V277.329C86.3203 274.319 83.8728 271.878 80.8537 271.878H80.8534L78.2879 269.937L73.5012 271.878L72.2751 271.878L72.2754 277.507Z" fill="#2F2E41"/>
<path d="M35.8339 260.141L39.487 262.874L51.7978 250.123L46.4055 246.089L35.8339 260.141Z" fill="#A0616A"/>
<path d="M32.8456 263.846L44.0807 272.25L44.1873 272.108C45.999 269.7 45.51 266.283 43.0951 264.477L43.0948 264.476L42.2107 261.389L37.2136 260.077L36.2329 259.343L32.8456 263.846H32.8456Z" fill="#2F2E41"/>
<path d="M51.0161 190.318C51.0161 190.318 51.2683 197.176 51.5863 202.676C51.6384 203.578 49.5192 204.557 49.5741 205.539C49.6105 206.19 50.0088 206.823 50.0459 207.501C50.0849 208.218 49.5349 208.852 49.5741 209.593C49.6124 210.317 50.2398 211.147 50.2776 211.888C50.6849 219.861 52.1613 229.406 50.6829 232.074C49.9543 233.389 40.6673 251.608 40.6673 251.608C40.6673 251.608 45.8417 259.347 47.3201 256.767C49.2728 253.36 64.3218 237.418 64.3218 234.374C64.3218 231.333 67.8034 208.546 67.8034 208.546L70.2311 222.031L71.3442 224.703L70.9945 226.272L71.7138 228.389L71.7527 230.484L72.453 234.374C72.453 234.374 70.3463 264.684 71.5327 265.528C72.7228 266.375 78.485 267.897 79.165 266.375C79.8414 264.853 84.2439 234.743 84.2439 234.743C84.2439 234.743 84.9535 220.944 85.7223 208.118C85.7666 207.374 86.2915 206.475 86.3322 205.741C86.3802 204.89 86.0476 203.784 86.0919 202.959C86.14 202.012 86.5613 201.344 86.602 200.438C86.9161 193.432 85.1526 184.9 84.5908 184.06C82.8943 181.524 81.3678 179.497 81.3678 179.497C81.3678 179.497 58.5182 172.011 52.4124 179.618L51.0161 190.318L51.0161 190.318Z" fill="#2F2E41"/>
<path d="M73.8056 119.795L64.7475 117.989L60.5203 123.709C52.6328 131.443 52.514 138.268 53.9221 149.209V164.564L52.903 174.857C52.903 174.857 49.2953 182.382 53.0163 184.134C56.7372 185.886 81.1783 185.737 83.5119 185.037C85.8454 184.338 83.8227 183.479 83.2099 180.22C82.0589 174.098 82.8288 177.051 82.908 175.102C84.0438 147.14 81.3983 135.66 81.1297 132.643L76.523 124.312L73.8056 119.795Z" fill="#3F3D56"/>
<path d="M121.547 142.34C120.603 144.124 118.388 144.807 116.599 143.866C116.408 143.765 116.227 143.648 116.057 143.516L96.4951 155.901L96.5515 149.158L115.554 138.162C116.908 136.649 119.235 136.516 120.753 137.866C122.023 138.995 122.351 140.845 121.547 142.34Z" fill="#A0616A"/>
<path d="M66.6537 127.605L64.4266 127.369C62.3688 127.157 60.3498 128.035 59.1072 129.685C58.6313 130.31 58.2895 131.027 58.103 131.79L58.1016 131.796C57.543 134.092 58.4192 136.498 60.3251 137.902L68.0171 143.557C73.4151 150.83 83.56 155.655 95.4602 159.575L113.957 148.12L107.415 140.219L94.7276 146.999L75.8686 132.442L75.8577 132.433L68.6799 127.822L66.6537 127.605L66.6537 127.605Z" fill="#3F3D56"/>
<path d="M70.7449 115.36C76.5787 115.36 81.3079 110.644 81.3079 104.827C81.3079 99.0099 76.5787 94.2941 70.7449 94.2941C64.9111 94.2941 60.1819 99.0099 60.1819 104.827C60.1819 110.644 64.9111 115.36 70.7449 115.36Z" fill="#A0616A"/>
<path d="M70.9889 115.362C70.9038 115.365 70.8184 115.367 70.7332 115.369C70.6967 115.464 70.6573 115.557 70.6119 115.649L70.9889 115.362V115.362Z" fill="#2F2E41"/>
<path d="M73.8878 105.119C73.9044 105.223 73.9298 105.325 73.9636 105.425C73.9496 105.32 73.9242 105.218 73.8878 105.119Z" fill="#2F2E41"/>
<path d="M81.4428 94.7447C81.008 96.091 80.6199 94.3833 79.1896 94.6905C77.4691 95.0599 75.4669 94.9331 74.0578 93.8814C71.9584 92.3454 69.2377 91.9319 66.7747 92.7745C64.3638 93.625 60.3246 94.2247 59.6964 96.6967C59.478 97.556 59.3913 98.4885 58.862 99.2006C58.3992 99.8232 57.6688 100.178 57.058 100.657C54.9956 102.276 56.5719 106.873 57.5481 109.302C58.5242 111.731 60.7633 113.5 63.2251 114.407C65.607 115.284 68.1922 115.438 70.7332 115.369C71.1751 114.226 70.9842 112.906 70.6195 111.721C70.2247 110.439 69.6402 109.201 69.4753 107.869C69.3104 106.537 69.6725 105.025 70.7923 104.281C71.8215 103.597 73.4963 104.014 73.8879 105.119C73.6594 103.737 75.0637 102.399 76.5118 102.164C78.0664 101.911 79.6211 102.471 81.1712 102.75C82.7214 103.028 82.1712 96.5204 81.4428 94.7447Z" fill="#2F2E41"/>
<path d="M140.519 122.251C141.504 110.387 132.657 99.9729 120.759 98.991C108.861 98.0091 98.4177 106.831 97.433 118.695C96.4483 130.559 105.295 140.973 117.193 141.955C129.091 142.937 139.534 134.115 140.519 122.251Z" fill="#0028FF"/>
<path d="M124.654 111.492L118.976 117.154L113.298 111.492C112.379 110.575 110.888 110.575 109.969 111.492C109.05 112.408 109.05 113.894 109.969 114.811L115.647 120.473L109.969 126.135C109.051 127.053 109.052 128.539 109.972 129.454C110.891 130.369 112.379 130.369 113.298 129.454L118.976 123.792L124.654 129.454C125.574 130.37 127.065 130.369 127.983 129.451C128.9 128.535 128.9 127.051 127.983 126.135L122.305 120.473L127.983 114.811C128.902 113.894 128.902 112.408 127.983 111.492C127.064 110.575 125.574 110.575 124.654 111.492Z" fill="white"/>
<path d="M110.458 102.356C111.095 104.27 110.055 106.336 108.136 106.972C107.931 107.04 107.721 107.089 107.507 107.12L102.928 129.77L98.0867 125.061L103.285 103.775C103.127 101.753 104.642 99.9868 106.67 99.8292C108.366 99.6974 109.932 100.742 110.458 102.356Z" fill="#A0616A"/>
<path d="M61.7909 131.653L60.0788 133.093C58.5002 134.426 57.7384 136.487 58.0717 138.523C58.1949 139.299 58.4767 140.041 58.8996 140.703L58.9031 140.708C60.1779 142.7 62.5258 143.735 64.8611 143.335L74.2786 141.716C83.2791 142.867 93.7944 138.907 104.87 133.059L109.386 111.818L99.1386 111.056L95.2617 124.879L71.671 128.371L71.6571 128.373L63.3508 130.345L61.7909 131.653L61.7909 131.653Z" fill="#3F3D56"/>
<path d="M115.415 277.87L0.501869 278C0.223799 277.999 -0.000897999 277.774 2.6984e-06 277.496C0.000894939 277.22 0.225063 276.997 0.501869 276.996L115.415 276.866C115.693 276.867 115.918 277.093 115.917 277.37C115.916 277.646 115.692 277.87 115.415 277.87Z" fill="#CACACA"/>
<path d="M24.0088 38.2461C25.9838 38.2461 27.5848 36.614 27.5848 34.6008C27.5848 32.5876 25.9838 30.9555 24.0088 30.9555C22.0339 30.9555 20.4328 32.5876 20.4328 34.6008C20.4328 36.614 22.0339 38.2461 24.0088 38.2461Z" fill="#3F3D56"/>
<path d="M36.3622 38.2461C38.3372 38.2461 39.9382 36.614 39.9382 34.6008C39.9382 32.5876 38.3372 30.9555 36.3622 30.9555C34.3873 30.9555 32.7863 32.5876 32.7863 34.6008C32.7863 36.614 34.3873 38.2461 36.3622 38.2461Z" fill="#3F3D56"/>
<path d="M48.7156 38.2461C50.6906 38.2461 52.2916 36.614 52.2916 34.6008C52.2916 32.5876 50.6906 30.9555 48.7156 30.9555C46.7407 30.9555 45.1396 32.5876 45.1396 34.6008C45.1396 36.614 46.7407 38.2461 48.7156 38.2461Z" fill="#3F3D56"/>
<path d="M62.8018 37.4819C62.6919 37.4819 62.5823 37.4395 62.4995 37.3551L60.0866 34.8955C59.9258 34.7317 59.9258 34.4698 60.0866 34.3059L62.4995 31.8465C62.6633 31.6802 62.9313 31.6775 63.0975 31.8399C63.2645 32.0028 63.2674 32.2698 63.1041 32.4362L60.9805 34.6007L63.1041 36.7654C63.2674 36.9318 63.2645 37.1988 63.0975 37.3617C63.0153 37.442 62.9085 37.4819 62.8018 37.4819Z" fill="#3F3D56"/>
<path d="M66.8564 37.4819C66.7496 37.4819 66.6429 37.442 66.5607 37.3617C66.3936 37.1988 66.3908 36.932 66.5541 36.7654L68.6775 34.6007L66.5541 32.4362C66.3908 32.2698 66.3936 32.0028 66.5607 31.8399C66.7273 31.6769 66.9953 31.68 67.1586 31.8465L69.5713 34.3059C69.7322 34.4698 69.7322 34.7317 69.5713 34.8955L67.1586 37.3551C67.0758 37.4395 66.9662 37.4819 66.8564 37.4819Z" fill="#3F3D56"/>
<path d="M193.085 31.3776H188.599C188.087 31.3776 187.672 31.7908 187.672 32.301V36.779C187.672 37.2893 188.087 37.7025 188.599 37.7025H193.085C193.597 37.7025 194.015 37.2893 194.015 36.779V32.301C194.015 31.7908 193.597 31.3776 193.085 31.3776Z" fill="#3F3D56"/>
<path d="M182.091 31.3776H177.604C177.092 31.3776 176.678 31.7908 176.678 32.301V36.779C176.678 37.2893 177.092 37.7025 177.604 37.7025H182.091C182.602 37.7025 183.021 37.2893 183.021 36.779V32.301C183.021 31.7908 182.602 31.3776 182.091 31.3776Z" fill="#3F3D56"/>
<path d="M203.445 31.5884H198.959C198.447 31.5884 198.033 32.0016 198.033 32.5118V36.9899C198.033 37.5001 198.447 37.9133 198.959 37.9133H203.445C203.957 37.9133 204.376 37.5001 204.376 36.9899V32.5118C204.376 32.0016 203.957 31.5884 203.445 31.5884Z" fill="#3F3D56"/>
<path d="M135.82 33.2919H99.9573C99.3314 33.2919 98.8282 33.7979 98.8282 34.4177C98.8282 35.0376 99.3314 35.5435 99.9573 35.5435H135.82C136.442 35.5435 136.949 35.0376 136.949 34.4177C136.949 33.7979 136.442 33.2919 135.82 33.2919Z" fill="#3F3D56"/>
</g>
<defs>
<clipPath id="clip0_181_2993">
<rect width="248" height="278" fill="white"/>
</clipPath>
</defs>
</svg>
