<svg xmlns="http://www.w3.org/2000/svg" viewBox="0 0 643.1 1196.78"><title>not found</title><g id="Layer_2" data-name="Layer 2"><g id="Layer_1-2" data-name="Layer 1"><path d="M643.1,431.84c0,28-3,55.45-12.3,82a152.75,152.75,0,0,1-26.16,46.8,8.75,8.75,0,0,0-2.17,7.2,827.72,827.72,0,0,1,5,94.7c-.09,28.48-1.28,56.92-4.87,85.2a335.73,335.73,0,0,1-7.44,38.68c-5.9,23.68-20.88,39.21-42.47,49.12C539.23,841.72,525,845,510.4,846.7c-4.46.53-8.92,1.32-13.43,1.07-2.67-.15-3.47.92-3.31,3.48.58,9,1,18,1.54,26.92q1.73,26.91,3.57,53.81c1.19,17.6,2.48,35.2,3.66,52.8.78,11.46,1.55,22.93,2.12,34.4,1.33,26.77,2.7,53.55,2.07,80.37-.35,15-1.25,29.91-4.73,44.59a50.85,50.85,0,0,1-20,30.06c-12,8.84-25.64,13.94-40,17.3-23.9,5.58-48.08,6.3-72.45,4.19a204.86,204.86,0,0,1-52-11.15,105.08,105.08,0,0,1-25.72-13.06,5.84,5.84,0,0,0-5.87-1.08c-25.6,8.23-52,9.56-78.51,7.8-22.17-1.48-43.83-5.83-64.4-14.61-8.61-3.67-16.79-8.12-24-14.2-7.44-6.32-12.85-13.88-14.44-23.8-1.18-7.33.27-14.24,3.13-20.93,4.2-9.83,10.94-17.82,18.55-25.14a89.49,89.49,0,0,1,13-10.85c3.05-2,3.46-4.12,2.67-7.46-4.35-18.49-6.83-37.31-8.73-56.18-1.79-17.72-2.9-35.5-3.45-53.31-.34-10.65-.79-21.3-.67-32,0-4.87-.46-4.34-4-5.45-15.7-4.9-26.47-15.48-33.93-29.8-6.6-12.69-10.1-26.37-12.79-40.28-3.39-17.54-5.34-35.22-4.16-53.12,1-15.78,2.89-31.47,5.43-47.09,12.53-77.12,32.67-152.44,53.87-227.5.86-3,1.7-6.09,2.64-9.11,1.19-3.83,2.07-4-2.49-6.62A259,259,0,0,1,98,475.89C48.58,434.5,17.27,382.3,4.88,319-12.29,231.2,16.72,142.41,78.39,80.7,118.1,41,165.69,16,220.76,5.13A266.3,266.3,0,0,1,290.82.61q95.37,6.48,167,70.11a262.82,262.82,0,0,1,43.24,49.55,15.84,15.84,0,0,0,4,4.38c27.31,19.09,48.62,43.83,66.78,71.45,27.15,41.28,45.54,86.38,57.79,134.09a443,443,0,0,1,11.83,66.25A342.82,342.82,0,0,1,643.1,431.84Zm-577-311.46a7.85,7.85,0,0,0-2.63,4.18,10.94,10.94,0,0,0,3.3-3.41c2-2.32,4.61-4.18,6.17-6.93,1.08-1,2.18-2,3.25-3.1q57.72-57.25,139-57.36A264.78,264.78,0,0,1,254.9,57.1,231.05,231.05,0,0,1,334,84.39a244.79,244.79,0,0,1,32.23,21.73c1.25,1,2.29,2.59,4.3,1.91,6.55-2.2,13.4-3.28,20.13-5a4.62,4.62,0,0,0-.49-1.12c-.83-.82-1.69-1.61-2.56-2.38-47.89-41.63-103.76-62.85-167-65.11a242.88,242.88,0,0,0-36.36,1.68c-9,1-17.68,2.7-25.66,7.22-3.17,1.8-6.51,3.31-9.71,5.07C119,64.9,93.08,86.23,71.9,113.15,69.44,115.14,67.86,117.85,66.06,120.38Zm45.33,569.56c0,.6,0,1.19-.07,1.79-1.45,9.86,3.78,19.88,11.64,21.94.27-5.64.55-11.24.82-16.84.41-7.51.81-15,1.26-23.28-7.11,3.43-11.53,8.07-13.25,15.11A.86.86,0,0,0,111.39,689.94Zm324.9-353.79,0,2.78c-4.31,24.75,7.79,62.54,23,70.56,1-24-2.1-47.32-6.81-70.5-.11-.61-.23-1.23-.34-1.84.06-.14.21-.31.17-.4a4.25,4.25,0,0,0-.44-.74,286.3,286.3,0,0,0-7.28-31.21c-3.94,8.41-7.32,21.1-7.88,29.19A1.82,1.82,0,0,0,436.29,336.15ZM136.11,569.07c-8,30.23-15.94,60.48-22.89,91.31,3.3-1.28,6-2.71,8.86-3.34,3.08-.67,4.33-2.2,4.86-5.21,1.86-10.64,2.46-21.43,3.92-32.12,2.32-16.94,4.45-33.9,6.67-50.86.85-2.46,1-5,1.26-8.28A22.06,22.06,0,0,0,136.11,569.07ZM329,724.79c-.91,1.32-.76,2.86-.83,4.33-.44,8.46-1,16.91-1.22,25.37a43,43,0,0,1-8.77,24.94c-.74,1-2.13,1.7-1.79,3.39,2.48.22,4.95.47,7.43.64a27.66,27.66,0,0,0,28-18.89c1.55-4.66,1.13-9.53,1.71-14.3a2.63,2.63,0,0,0-.8-2.23c-6.07-6.37-9.62-14.21-12.82-22.24-.52-2.09-1.13-4.16-1.52-6.28-2.95-15.6,1.17-28.76,14.33-38.12,3.69-2.62,4.6-5.48,4.79-9.43.83-17.11-13.63-32.26-33.77-28.77,6.74,9.51,8,20.12,7.24,31.35-1,15.07-1.5,30.18-2.18,45.28C328.7,721.48,328.9,723.14,329,724.79ZM144.83,802.91h0c.26,1,.44,1.94.78,2.86,3.08,8.25,8.12,15.22,14.08,21.58,10.27,10.95,22.57,19.1,36,25.6,19.08,9.25,38.94,16,60,19,11.35,1.6,22.55,4.23,34.12,3.89,6.28-.18,6.24,0,7-6.39a185.6,185.6,0,0,1,4.81-24.93c.64-2.41,1.68-3.9,4.23-4.09.61.19,1.11.82,1.86.53v0c.67,6.1,1.47,12.18,2,18.29,1.56,18.74,1.43,37.55,1.86,56.33.48,20.78,0,41.57,1.12,62.35.17,3.07,1.22,4.26,4,5.18A196.05,196.05,0,0,0,368,992.66a300.75,300.75,0,0,0,76.83-6.08c7.76-1.58,15.64-2.83,23.07-5.81,4.37-.3,8.35-2.12,12.49-3.28,4.63-1.3,4.66-1.43,4.42-6.1s-.64-9.3-.95-13.95q-1.71-25.41-3.39-50.83-1.86-28.9-3.59-57.81c-.66-11.14-1.11-22.28-1.69-33.42-1-18.46-2.23-36.9-1.32-55.4.15-3.12.39-6.22.61-9.81a283.66,283.66,0,0,1-52.85,5.49c-17.59.17-35-1.8-52.55-4.16-.36,3.57-.71,6.53-1,9.49-1.73,20.14-20,38.08-42.54,37.79-5.33-.07-10.64-.55-16-.85-19.94-1.11-39.89-2.07-59.84-3-23.77-1.15-47.56-2.13-71.32-3.41-10.25-.55-20.63-.21-30.57-3.56-2.13-1.35-4.2-2.82-7-3.33.18,6.12,2,11.57,3.2,17.16C143.86,802.45,144.14,802.82,144.83,802.91ZM509,687.6c-.41-1.67-1.67-2.85-2.47-4.29-1.25-2.22-2.72-2.82-5.23-1.44a85.56,85.56,0,0,1-15.21,6.07c-22.2,7.11-45.17,9-68.26,9.62A363.2,363.2,0,0,1,365.58,695a6.19,6.19,0,0,0-5.75,2c-6.15,6.46-7.26,13.79-4.19,22,.62,4,2.75,7.43,4.49,11a6.69,6.69,0,0,0,5.43,3.78c17.55,3,35.19,5.1,53,5.12A264.7,264.7,0,0,0,450.94,737a208.59,208.59,0,0,0,48.79-11.73,17.49,17.49,0,0,0,10.72-10.37C514.11,705.6,514.16,696.43,509,687.6Zm-391.87,43a45,45,0,0,1-15.81-13.29c-.54,2.24-1,3.66-1.23,5.12-3.06,16.84-5.89,33.72-7.74,50.74C91.1,784.41,90.1,795.69,90.5,807a228.4,228.4,0,0,0,6.72,45.79c2.63,10.84,6.2,21.38,12.72,30.65,4.09,5.83,9.16,10.52,15.77,13.35,1,.41,1.92,1.49,3.44.13,0-4.37,0-9,0-13.67.05-10.47,1.25-20.91.54-31.4,1.64-9.37.83-18.91,2-28.31a23.26,23.26,0,0,0-1.7-12.14A56.8,56.8,0,0,1,127,800.9,278.8,278.8,0,0,1,121.79,737C122,731.37,122.56,732.62,117.1,730.61Zm20.51,2a69.38,69.38,0,0,0-.57,19.87c1.76,12.94,13.55,22.46,24.46,22.3,5.32-.08,10.64.46,15.95.72,8.65.43,17.29.8,25.93,1.3,2.36.14,3.21-.63,3.23-3.06.08-9.65.61-19.28.3-28.93.76-3.27.35-6.62.71-9.91.5-4.63-1.08-7.92-5.13-10.42-4.51-2.79-8.76-6-13.07-9.13a19.08,19.08,0,0,1-8.19-16.76c.2-8.13.83-16.26,1.21-24.39q.83-17.68,1.53-35.38c.14-3.57,0-3.65-3.39-3.79-4.16-.18-8.32-.14-12.47-.36-12.09-.65-26.48,9.7-27.24,26.26s-1.74,33.2-2.54,49.8C138,718.05,137.84,725.35,137.61,732.64ZM427.9,396a24.16,24.16,0,0,0-3.12-7.72,16.43,16.43,0,0,0-.6-3.41c-3.7-9.07-4.25-18.75-5.21-28.27-1.15-11.45.61-22.85,2.6-34.13a116.61,116.61,0,0,1,6.21-20.95c1.39-3.66,1.24-3.67-2.34-4.72-3.17-.92-6.55-.85-9.61-2.42-1.67-.85-3,.23-4.09,1.85-4,6.1-8.07,12.13-12.11,18.19a8,8,0,0,1-.85-.51c-4.72-3.59-9.82-4.94-15.26-1.94s-7.6,7.91-7.85,14c-.19,4.37,1.54,8,3.29,11.78-3.76,4.91-8.55,8.74-13.06,12.91a261.61,261.61,0,0,1-35.81,27.55,273.88,273.88,0,0,1-57.64,28.17c-7.37,2.61-14.86,4.75-22.32,7A221,221,0,0,1,221,419.78a191.39,191.39,0,0,1-20.69,2.61c-7.41.37-14.85,1.35-22.28,1.53a219.64,219.64,0,0,1-27.37-.67c-8.22-.83-16.51-1.18-24.74-2.2-10.85-1.34-21.53-3.63-32.21-5.92-8.44-1.81-16.68-4.42-24.92-7l-12-3.77a2,2,0,0,0,.1,2.3c4,5.66,8.07,11.35,12.23,16.93,3.68,4.95,7.89,9.39,13.33,12.5.26.15.38.54.56.81.12,1.93.11,1.94,1.37,3.29a257.79,257.79,0,0,0,74.46,55.35A49.21,49.21,0,0,0,168,499.2a273.78,273.78,0,0,0,80.43,9.14,251.21,251.21,0,0,0,53.22-7.42C346.51,489.53,385,467.35,416.22,433a231.71,231.71,0,0,0,17.39-21.85c1.17-1.64,1.62-3,.32-4.91C431.73,403,429.89,399.46,427.9,396Zm-113,286.75c1-5.26,1-10.59,1-15.9A27.1,27.1,0,0,0,299,642a14.29,14.29,0,0,0-4.79-1.19c-4.65-.18-9.29-.58-13.94-.82q-29.11-1.47-58.25-2.9c-7.3-.34-14.63-.34-21.91-1.12-2.12-.23-3.3.08-3.42,2.74-.84,19.93-1.83,39.85-2.83,59.76-.16,3.38,1.35,5.66,4,7.48,4.25,2.9,8.38,6,12.67,8.85,6.84,4.54,10,10.78,9.55,19-.21,3.64-.05,7.3-.06,10.95-.33,9.63-.72,19.26-1,28.89-.11,4,0,4,4.15,4.13,3.32.13,6.65.18,10,.35q23.4,1.25,46.79,2.55a33.55,33.55,0,0,0,13.28-1.42c10.86-3.82,17.89-13.36,18.52-25.34s1.42-23.89,1.8-35.85C313.92,706.32,315.21,694.58,314.94,682.78Zm185.68,73c-2.8,8.14-5.11,16.45-8.66,24.33a7,7,0,0,0-.38,2.94c.28,14.8-.25,29.61,1,44.38.31,3.68.29,3.67,4.14,3.6a124,124,0,0,0,14.4-1.24c13.91-1.89,27.39-5.24,39.83-12,13.94-7.58,23.76-18.5,27.68-34.19.36-1.45.8-2.88,1.17-4.33,5.37-21.2,7.51-42.84,9-64.58.16-2.29.75-4.63-.09-6.91.1-.9.21-1.8.31-2.7.53-.39.52-.82.1-1.29.23-2,.59-4,.67-5.93.67-17.12,1.15-34.25.76-51.39-.46-20.29-1.32-40.56-3-60.78a12.09,12.09,0,0,0-1.08-5.16c-4.22,3.38-8,6.58-12,9.58-20.43,15.47-43.4,25.53-68.19,31.64-3.58.89-3.57.91-3.19,4.59.63,6,1.4,11.89,1.79,17.86.2,2.89,1,4.84,3.65,6.41,4.52,2.7,7.65,7.11,7.81,12.17.17,5.46,2.58,9.37,5.54,13.37a24.18,24.18,0,0,1,2.05,3.42c8.62,17,8.11,33.59-2.47,49.58-2.39,3.61-5.2,7.45-9.4,8.67-7.57,2.2-10.45,7.28-10.93,14.5C501,753.51,500.76,754.65,500.62,755.81Zm-353.55,95-.36,9.46c-1.25,33.56-1.31,67.12.08,100.68.11,2.66,1.12,3.72,3.43,4.48A193.69,193.69,0,0,0,199,974.6a297.27,297.27,0,0,0,73.88-5.09c4-.76,8.21-.93,11.94-2.92,1.73.52,3.25-.37,4.85-.73,5.26-1.19,5.33-1.21,5-6.28a551.85,551.85,0,0,1-.21-63.79c.14-2.44-.62-3.23-3-3.17-10.34.22-20.51-1.37-30.71-2.83-18-2.58-35.54-6.62-52.5-13.16-21.72-8.38-42-19.07-58.77-35.69-.42-.41-.88-1-1.91-.25A62.13,62.13,0,0,0,147.07,850.83ZM64.87,326.21c.09.4.08,1.14.62.89s.18-.86-.36-1.12A275.36,275.36,0,0,1,68,272.24c3.53-22.45,9-44.3,18.3-65.12,8.9-19.81,22-35.94,40.15-48a186.42,186.42,0,0,1,37.79-19.09c30.72-11.56,62.7-16.22,95.28-17.53a333.62,333.62,0,0,1,49.87,1.62c1.72.19,3.55.59,5.57-.21-.5-2.17-2-3.3-3.38-4.33a97.33,97.33,0,0,0-9.06-6.2c-27.2-15.73-56.79-23.28-88-25.05a209.8,209.8,0,0,0-51.15,3.8c-30,5.68-54.51,20.53-74.6,43.18-17.57,19.81-30,42.63-39.85,67.06a140.8,140.8,0,0,0-9.83,43.13c-2,29.15,7,55.11,23.64,78.71C63.31,325,63.79,326,64.87,326.21Zm183,751.36c-24.32-9.58-49.26-11.66-74.74-5.78-6.6,1.52-13.35,3-19.11,6.8a104.3,104.3,0,0,0-24.74,22.26c-3.32,4.19-6.17,8.65-7.63,13.87-1.9,6.76-.85,12.79,4.25,17.88,1.42,2.53,3.74,4.18,6,5.87a89.75,89.75,0,0,0,26.14,13.2c35.67,11.71,72,13.56,108.77,6.57,3-.56,6.14-.88,9-2.63-.51-1.15-.9-2-1.31-2.94a33.38,33.38,0,0,1-2.7-19.94c1.56-9.1,5.87-16.89,11.47-24a116,116,0,0,1,23.47-22.25c2.49-1.8,3.16-3.39,2.45-6.55A557.42,557.42,0,0,1,297.68,1002c-.63-7.94-1.36-15.88-2.06-24a33.52,33.52,0,0,0-7.81,1.75,16,16,0,0,0-2,.19,319.9,319.9,0,0,1-61.18,7.8c-20.17.52-40.2-.66-59.93-5.17-5.47-1.25-10.89-2.77-16.45-4.2a11.62,11.62,0,0,0-.18,5.12c.56,6.79,1.13,13.58,1.79,20.37a444.11,444.11,0,0,0,8,52.7c.73,3.33.79,3.39,4.35,2.81a115.11,115.11,0,0,1,15.38-1.43,133.94,133.94,0,0,1,72.32,18.69C249.62,1077.82,248.59,1077.29,247.92,1077.57Zm220.83-82.92a19.28,19.28,0,0,0-3,.3c-26.49,6.85-53.37,10.83-80.78,10.93a238.27,238.27,0,0,1-46.62-4c-8.14-1.59-16.11-3.78-24.07-6a4.28,4.28,0,0,0-.3,1.1c.22,2.66.51,5.3.72,8a541.21,541.21,0,0,0,10.18,69c.84,4,.88,4,4.91,3.39a130.42,130.42,0,0,1,59.59,4.92,112.73,112.73,0,0,1,31.14,15,41.67,41.67,0,0,1-6.48-1.91c-23.69-9.54-48-11.25-72.84-5.7-6.94,1.55-14,3.08-20.08,7a109.06,109.06,0,0,0-21.84,18.89c-4,4.49-7.6,9.3-9.62,15-1.26,3.58-2.66,7.21-1,11.09.69,5.73,4.38,9.58,8.46,13,6.66,5.66,14.35,9.63,22.44,12.81,15.57,6.12,31.77,9.52,48.39,11.3,23.19,2.48,46.18,1.73,69-3.31,11.59-2.57,22.7-6.45,32.68-13.09,8.54-5.67,14.23-13.23,16.39-23.48a195.48,195.48,0,0,0,3.78-35.18c.94-36-1.21-71.87-3.35-107.76a18.31,18.31,0,0,0-1.17-6.78C479.84,991.48,474.05,992.23,468.75,994.65ZM378.8,205.15a35.32,35.32,0,0,0-1.38,24.35c7,22.58,22.78,37.79,42.94,48.79,6.5,3.54,13.87,3.13,20.88.78a110.87,110.87,0,0,0,11.95-4.94c8.95-4.23,17.1-9.56,23.24-17.56,2.13-2.76,4.22-3.42,6.32-2.23s2.61,3.61,1,7a56.87,56.87,0,0,1-10.05,14.18,83.14,83.14,0,0,1-13.57,11.71c-1.75,1.2-2.31,2.32-1.61,4.52,1.56,4.9,2.7,9.93,4.07,14.89.69,2.51.7,5.24,2.35,7.44.26,2,.4,4,.82,5.92,5.62,25.55,10,51.26,10.44,77.5,0,2.48,1,3.75,3.36,4.75a284.63,284.63,0,0,0,42.39,14.36c20.49,5.08,41.19,7.71,62.28,4.45,14.26-2.2,27.12-7.58,38.13-17.09a6.4,6.4,0,0,0,2.49-6q-1.23-12.93-3.38-25.72a458.38,458.38,0,0,0-37.76-120.95c-15.13-31.91-33.78-61.5-58.27-87.15-15.53-16.26-33-30-53.61-39.29A94.24,94.24,0,0,0,431.28,116a223.21,223.21,0,0,0-42.09,4.43c-11.56,2.37-22.89,5.65-33.46,11.1-4.44,2.29-8.78,4.82-12.13,8.63-2.44,2.77-4.66,5.75-3.27,9.86a7,7,0,0,0,.08,1.45c1.82,6.94,6.9,10.68,13.15,13.15,10.27,4.06,21,4.24,31.82,3.74,1.8-.08,3.08-1.08,4.45-2a132.17,132.17,0,0,1,21.82-11.76c2.71-1.14,5.72-1.53,8.17-3.3l2-.32a1.91,1.91,0,0,0,2.19-.6l3.42-.62c4.39-.81,8.77-1.78,13.19-2.41,3.33-.48,5.24.84,5.69,3.37.41,2.33-.8,3.95-3.74,5a14.65,14.65,0,0,1-1.44.4c-20.09,5-36.67,15.79-50.85,30.56A48.45,48.45,0,0,0,378.8,205.15ZM626,441.83c1.1-7.87.51-15.71.26-24.31l-4.55,3a83.16,83.16,0,0,1-20.14,9.65c-20.09,6.6-40.58,6.35-61.15,3.39-21.31-3.08-41.71-9.48-61.58-17.63-.87-.35-1.69-1.16-2.89-.35-.06.71-.13,1.53-.22,2.35-1,9.94-2.39,19.84-6.64,29C458,470.67,439.91,487,415.94,497c-2.58,1.08-3.66,2.32-3.43,4.93-3,.69-5.33,2.61-7.95,4a278.47,278.47,0,0,1-174.44,29.64,270,270,0,0,1-64.54-18.5c-1-.4-2-1.45-3.43-.3-1.18,8-2.4,16.21-3.62,24.41a5.85,5.85,0,0,0-.31,1q-4.56,32.35-9.1,64.72c-.8,5.82-1.39,11.67-2.12,17.91,5.4-2.39,10.28-4.41,15.67-5,9.17-.95,18.28.24,27.39.62,22.28.93,44.53,2.33,66.8,3.45,17.62.89,35.25,1.51,52.86,2.5,8.64.49,17.33.23,25.91,1.52,17.82,2.68,29.41,12.84,35.28,29.77,2,5.79,1.89,11.8,1.92,17.77,0,2.46.68,3.41,3.17,3.79,7.76,1.15,15.59,1.18,23.38,1.51a310.57,310.57,0,0,0,49.35-1.88c12.39-1.45,24.64-3.77,36.39-8.11,5.69-2.1,4.85-1.16,4.6-6.56-.56-12-1.79-23.89-3-35.81-.2-2-.75-3-3.07-2.7-4.13.46-8.3.52-12.45.86-7.35.6-14.64-.21-21.91-1-4.23-.48-4.65-2.3-1.9-6a358.56,358.56,0,0,0,53.26-12.72c24.78-7.79,48-18.77,68.41-35,19.79-15.75,35-35,44.29-58.65,7.46-19,11.06-39,12.32-59.34C625.91,449.77,626.92,445.81,626,441.83ZM234.65,19.94c22.57,2.19,40.78,5.45,56.79,10,44,12.59,82.33,35.19,115.42,66.68A11.43,11.43,0,0,0,417,100a134.74,134.74,0,0,1,35.31,1c5.25.84,10.16,2.76,15.64,4.17C412,38.82,319.81,6,234.65,19.94Zm41.51,502.14h3.94a236.76,236.76,0,0,0,38.67-3.9A257,257,0,0,0,434.82,466a20.19,20.19,0,0,0,3.32-3c6.92-8.59,12.85-17.78,16.51-28.29,1.75-5.05,1.72-5-2.39-8.16-2.23-1.7-4.38-3.52-6.74-5.42C403.38,478.9,346.17,511,276.16,522.08ZM403.47,288.44c-10.85-8.4-20.73-16.95-28.69-27.49a82.25,82.25,0,0,1-15.86-35.65,3.57,3.57,0,0,0-1.49,1.63c-.79,1.26-1.74,2.44-2.42,3.76-7.72,14.81-7.7,29.71.22,44.33,5.4,10,13.73,16.58,25.12,18.65C388.49,295.15,396,293.41,403.47,288.44Z" style="fill:#231f20"/><path d="M447.39,619.47c-2.75,3.69-2.33,5.51,1.9,6,7.27.83,14.56,1.64,21.91,1,4.15-.34,8.32-.4,12.45-.86,2.32-.26,2.87.7,3.07,2.7,1.21,11.92,2.44,23.84,3,35.81.25,5.4,1.09,4.46-4.6,6.56-11.75,4.34-24,6.66-36.39,8.11a310.57,310.57,0,0,1-49.35,1.88c-7.79-.33-15.62-.36-23.38-1.51-2.49-.38-3.15-1.33-3.17-3.79,0-6,.08-12-1.92-17.77-5.87-16.93-17.46-27.09-35.28-29.77-8.58-1.29-17.27-1-25.91-1.52-17.61-1-35.24-1.61-52.86-2.5-22.27-1.12-44.52-2.52-66.8-3.45-9.11-.38-18.22-1.57-27.39-.62-5.39.56-10.27,2.58-15.67,5,.73-6.24,1.32-12.09,2.12-17.91q4.49-32.37,9.1-64.72a5.85,5.85,0,0,1,.31-1c1.42-.38,2.56.37,3.78.91,5.31,2.37,10.6,4.81,16,7a193.55,193.55,0,0,0,61.33,14.57,242.46,242.46,0,0,0,41.38-.54,230.41,230.41,0,0,0,41.94-8.44A255.21,255.21,0,0,0,379.54,530a269.37,269.37,0,0,0,32.12-21.94c2.73-2.19,2.73-2.41.85-6.17-.23-2.61.85-3.85,3.43-4.93,24-10,42.1-26.3,53.12-50.06,4.25-9.17,5.61-19.07,6.64-29,.09-.82.16-1.64.22-2.35,1.2-.81,2,0,2.89.35,19.87,8.15,40.27,14.55,61.58,17.63,20.57,3,41.06,3.21,61.15-3.39a83.16,83.16,0,0,0,20.14-9.65l4.55-3c.25,8.6.84,16.44-.26,24.31-.87.38-1.05,1.16-1.27,2-8.14,30.59-24.22,56.15-48.09,77C558,537.08,537,549.34,514.38,558.88a346,346,0,0,1-42,14.1c-12.75,3.53-21.51,11.59-25.65,24.27C444.29,604.68,443.68,612.17,447.39,619.47Z" style="fill:#fdfdfd"/><path d="M421.78,151l-2,.32c-4.75-2.17-9.69-.9-14.55-.67-9.26.44-18.27,2.75-27.46,3.83-12.27,1.44-24.06.43-35.56-4.08a10,10,0,0,0-1.92-.37c-1.39-4.11.83-7.09,3.27-9.86,3.35-3.81,7.69-6.34,12.13-8.63,10.57-5.45,21.9-8.73,33.46-11.1A223.21,223.21,0,0,1,431.28,116a94.24,94.24,0,0,1,40.52,8.83c20.64,9.33,38.08,23,53.61,39.29,24.49,25.65,43.14,55.24,58.27,87.15a458.38,458.38,0,0,1,37.76,121Q623.6,385,624.82,398a6.4,6.4,0,0,1-2.49,6c-11,9.51-23.87,14.89-38.13,17.09-21.09,3.26-41.79.63-62.28-4.45a284.63,284.63,0,0,1-42.39-14.36c-2.36-1-3.32-2.27-3.36-4.75-.47-26.24-4.82-52-10.44-77.5-.42-1.94-.56-3.94-.82-5.92,1.61.05,1.74-1.23,2.08-2.33,4.16-13.38,10.37-25.87,16.6-38.35a82.26,82.26,0,0,0,5.67-14.34c1-3.67,1.95-7.32.69-11.23-1.41-4.35-3.5-5.9-8.09-5.2-5.25.8-10.42,1.91-15.58,3.17-11.47,2.79-23,5-34.93,4.37-16.84-.92-31.46-6.82-42.6-19.7-6.17-7.13-10.19-15.51-9.95-25.36a48.45,48.45,0,0,1,11.44-18.42c14.18-14.77,30.76-25.6,50.85-30.56a14.65,14.65,0,0,0,1.44-.4c2.94-1.05,4.15-2.67,3.74-5-.45-2.53-2.36-3.85-5.69-3.37-4.42.63-8.8,1.6-13.19,2.41l-3.42.62A1.77,1.77,0,0,0,421.78,151Z" style="fill:#fdfdfd"/><path d="M307.74,841c-.75.29-1.25-.34-1.86-.53-1.65-1.27-3.54-.54-5.31-.57-28.08-.43-56.18.61-84.22-2a132.93,132.93,0,0,1-37.22-8.61,72.45,72.45,0,0,1-31.72-24.21c-.68-.91-1.28-2-2.59-2.17h0l-.76-1.15c-1.15-5.59-3-11-3.2-17.16,2.79.51,4.86,2,7,3.33,2.16,6.16,7,9.9,12.17,13.33,6.32,4.23,13.68,5.1,21,5.33,12.95.42,25.87,1.31,38.81,2l40.8,2c13.11.66,26.21,1.45,39.31,1.93,10.63.4,21.23,1.56,31.88,1.32,4.28-.1,8.43.83,12.86.2,17.32-2.46,30.17-17.83,30.11-33.92a87.24,87.24,0,0,1,.92-12.92c.23-1.65.88-2.36,2.61-2a249.53,249.53,0,0,0,28.58,4c12.91.8,25.77,2.67,38.75.9a63.51,63.51,0,0,1,6.48-.15c1.9-.06,2.82.87,2.7,2.71-.26,3.85.85,7.59.88,11.41.09,13.13,1.22,26.21,1.87,39.31.83,16.58,2,33.14,3.05,49.71.64,9.77,1.37,19.53,2,29.3.94,14.41,2,28.81,2.95,43.21.76,11.77,1.39,23.54,2.27,35.29-7.43,3-15.31,4.23-23.07,5.81A300.75,300.75,0,0,1,368,992.66a196.05,196.05,0,0,1-51.27-9.49c-2.77-.92-3.82-2.11-4-5.18-1.12-20.78-.64-41.57-1.12-62.35-.43-18.78-.3-37.59-1.86-56.33-.51-6.11-1.31-12.19-2-18.3a1.74,1.74,0,0,0,.31-.29c.05-.07,0-.2,0-.3Z" style="fill:#fdfdfd"/><path d="M83,436.91c-.18-.27-.3-.66-.56-.81C77,433,72.76,428.55,69.08,423.6c-4.16-5.58-8.18-11.27-12.23-16.93a2,2,0,0,1-.1-2.3l12,3.77c8.24,2.57,16.48,5.18,24.92,7,10.68,2.29,21.36,4.58,32.21,5.92,8.23,1,16.52,1.37,24.74,2.2a219.64,219.64,0,0,0,27.37.67c7.43-.18,14.87-1.16,22.28-1.53A191.39,191.39,0,0,0,221,419.78a221,221,0,0,0,29.14-6.33c7.46-2.28,14.95-4.42,22.32-7a273.88,273.88,0,0,0,57.64-28.17A261.61,261.61,0,0,0,365.9,350.7c4.51-4.17,9.3-8,13.06-12.91,1.39,1.17,2.7,2.46,4.18,3.49a13.08,13.08,0,0,0,19.05-3.8,17.35,17.35,0,0,0,2.62-7.93c.54-5.83-1.69-10.67-5.18-15.1,4-6.06,8.14-12.09,12.11-18.19,1.05-1.62,2.42-2.7,4.09-1.85,3.06,1.57,6.44,1.5,9.61,2.42,3.58,1.05,3.73,1.06,2.34,4.72a116.61,116.61,0,0,0-6.21,20.95c-2,11.28-3.75,22.68-2.6,34.13,1,9.52,1.51,19.2,5.21,28.27a16.43,16.43,0,0,1,.6,3.41l-12,17.74a3.09,3.09,0,0,0-.8.53,192.23,192.23,0,0,1-50,46.91c-47.33,30.79-99.4,40.7-155,34.12A246.49,246.49,0,0,1,140.83,470,255.12,255.12,0,0,1,83,436.91Z" style="fill:#414042"/><path d="M288.67,1141.71c-1.63-3.88-.23-7.51,1-11.09,2-5.74,5.62-10.55,9.62-15a109.06,109.06,0,0,1,21.84-18.89c6.07-4,13.14-5.5,20.08-7,24.84-5.55,49.15-3.84,72.84,5.7a41.67,41.67,0,0,0,6.48,1.91,112.73,112.73,0,0,0-31.14-15,130.42,130.42,0,0,0-59.59-4.92c-4,.62-4.07.61-4.91-3.39a541.21,541.21,0,0,1-10.18-69c-.21-2.66-.5-5.3-.72-8a4.28,4.28,0,0,1,.3-1.1c8,2.24,15.93,4.43,24.07,6a238.27,238.27,0,0,0,46.62,4c27.41-.1,54.29-4.08,80.78-10.93a19.28,19.28,0,0,1,3-.3c.1,6.31.43,12.61.77,18.91.68,12.61.1,25.28,1.12,37.89.48,6-.89,11.93-.8,17.92a165.44,165.44,0,0,1-4.11,39.05,41.61,41.61,0,0,1-8,17c-5,6.28-11.37,10.68-18.3,14.36-18.3,9.72-38.26,13.37-58.58,14.6-16.75,1-33.58.88-50.27-1.78C316.24,1150.29,302.13,1147.25,288.67,1141.71Z" style="fill:#fdfdfd"/><path d="M126,1132.6c-5.1-5.09-6.15-11.12-4.25-17.88,1.46-5.22,4.31-9.68,7.63-13.87a104.3,104.3,0,0,1,24.74-22.26c5.76-3.78,12.51-5.28,19.11-6.8,25.48-5.88,50.42-3.8,74.74,5.78,2.33,1.79,5.11,2.46,7.88,3.24-1.7-1.82-3.46-3.47-5.89-4.14A133.94,133.94,0,0,0,177.59,1058a115.11,115.11,0,0,0-15.38,1.43c-3.56.58-3.62.52-4.35-2.81a444.11,444.11,0,0,1-8-52.7c-.66-6.79-1.23-13.58-1.79-20.37a11.62,11.62,0,0,1,.18-5.12c5.56,1.43,11,3,16.45,4.2,19.73,4.51,39.76,5.69,59.93,5.17a319.9,319.9,0,0,0,61.18-7.8,16,16,0,0,1,2-.19c3.21,11.42,4.2,23.2,4.84,34.92,1,17.59.48,35.21-2.78,52.62-2.95,15.76-7.23,31.06-15.35,45.06-6.73,11.62-15.47,21.11-27.86,26.91-8.51,4-17.62,4.72-26.72,5.15-13.13.61-26.21-.34-39.3-1.63-11.08-1.1-22-3-32.94-5C140.35,1136.46,133.27,1134,126,1132.6Z" style="fill:#fdfdfd"/><path d="M64.87,326.21c-1.08-.26-1.56-1.18-2.13-2-16.68-23.6-25.62-49.56-23.64-78.71a140.8,140.8,0,0,1,9.83-43.13c9.82-24.43,22.28-47.25,39.85-67.06,20.09-22.65,44.63-37.5,74.6-43.18a209.8,209.8,0,0,1,51.15-3.8c31.16,1.77,60.75,9.32,88,25.05a97.33,97.33,0,0,1,9.06,6.2c1.39,1,2.88,2.16,3.38,4.33-2,.8-3.85.4-5.57.21a333.62,333.62,0,0,0-49.87-1.62c-32.58,1.31-64.56,6-95.28,17.53a186.42,186.42,0,0,0-37.79,19.09c-18.1,12-31.25,28.17-40.15,48-9.35,20.82-14.77,42.67-18.3,65.12A275.36,275.36,0,0,0,65.13,326Z" style="fill:#a7a9ac"/><path d="M284.83,966.59c-3.73,2-7.94,2.16-11.94,2.92A297.27,297.27,0,0,1,199,974.6a193.69,193.69,0,0,1-48.79-9.15c-2.31-.76-3.32-1.82-3.43-4.48-1.39-33.56-1.33-67.12-.08-100.68l.36-9.46c1.28-.07,2.13.73,3.06,1.44,3.43,2.62,6.84,5.28,10.39,7.73,21.37,14.71,44.75,25.44,69.24,33.63a65.64,65.64,0,0,1,35.17,27A144.26,144.26,0,0,1,284.83,966.59Z" style="fill:#fdfdfd"/><path d="M588.94,705.11c-.1.9-.21,1.8-.31,2.7-2.36.13-2.17,2.31-2.72,3.68-4.84,11.89-13.27,20.59-24,27.28-18.75,11.71-39.68,15.65-61.31,17,.14-1.16.33-2.3.41-3.46.48-7.22,3.36-12.3,10.93-14.5,4.2-1.22,7-5.06,9.4-8.67,10.58-16,11.09-32.58,2.47-49.58a24.18,24.18,0,0,0-2.05-3.42c-3-4-5.37-7.91-5.54-13.37-.16-5.06-3.29-9.47-7.81-12.17-2.63-1.57-3.45-3.52-3.65-6.41-.39-6-1.16-11.91-1.79-17.86-.38-3.68-.39-3.7,3.19-4.59,24.79-6.11,47.76-16.17,68.19-31.64,4-3,7.78-6.2,12-9.58a12.09,12.09,0,0,1,1.08,5.16c1.7,20.22,2.56,40.49,3,60.78.39,17.14-.09,34.27-.76,51.39-.08,2-.44,4-.67,5.93A.83.83,0,0,0,588.94,705.11Z" style="fill:#fdfdfd"/><path d="M467.86,980.77c-.88-11.75-1.51-23.52-2.27-35.29-.93-14.4-2-28.8-2.95-43.21-.64-9.77-1.37-19.53-2-29.3-1.08-16.57-2.22-33.13-3.05-49.71-.65-13.1-1.78-26.18-1.87-39.31,0-3.82-1.14-7.56-.88-11.41.12-1.84-.8-2.77-2.7-2.71a63.51,63.51,0,0,0-6.48.15c-13,1.77-25.84-.1-38.75-.9a249.53,249.53,0,0,1-28.58-4c-1.73-.32-2.38.39-2.61,2a87.24,87.24,0,0,0-.92,12.92c.06,16.09-12.79,31.46-30.11,33.92-4.43.63-8.58-.3-12.86-.2-10.65.24-21.25-.92-31.88-1.32-13.1-.48-26.2-1.27-39.31-1.93l-40.8-2c-12.94-.65-25.86-1.54-38.81-2-7.31-.23-14.67-1.1-21-5.33-5.12-3.43-10-7.17-12.17-13.33,9.94,3.35,20.32,3,30.57,3.56,23.76,1.28,47.55,2.26,71.32,3.41,19.95,1,39.9,1.92,59.84,3,5.31.3,10.62.78,16,.85,22.58.29,40.81-17.65,42.54-37.79.25-3,.6-5.92,1-9.49,17.52,2.36,35,4.33,52.55,4.16a283.66,283.66,0,0,0,52.85-5.49c-.22,3.59-.46,6.69-.61,9.81-.91,18.5.36,36.94,1.32,55.4.58,11.14,1,22.28,1.69,33.42q1.7,28.91,3.59,57.81,1.63,25.42,3.39,50.83c.31,4.65.71,9.29.95,13.95s.21,4.8-4.42,6.1C476.21,978.65,472.23,980.47,467.86,980.77Z" style="fill:#bcbec0"/><path d="M288.67,1141.71c13.46,5.54,27.57,8.58,41.88,10.86,16.69,2.66,33.52,2.8,50.27,1.78,20.32-1.23,40.28-4.88,58.58-14.6,6.93-3.68,13.3-8.08,18.3-14.36a41.61,41.61,0,0,0,8-17,165.44,165.44,0,0,0,4.11-39.05c-.09-6,1.28-11.91.8-17.92-1-12.61-.44-25.28-1.12-37.89-.34-6.3-.67-12.6-.77-18.91,5.3-2.42,11.09-3.17,16.51-5.38a18.31,18.31,0,0,1,1.17,6.78c2.14,35.89,4.29,71.78,3.35,107.76A195.48,195.48,0,0,1,486,1139c-2.16,10.25-7.85,17.81-16.39,23.48-10,6.64-21.09,10.52-32.68,13.09-22.79,5-45.78,5.79-69,3.31-16.62-1.78-32.82-5.18-48.39-11.3-8.09-3.18-15.78-7.15-22.44-12.81C293.05,1151.29,289.36,1147.44,288.67,1141.71Z" style="fill:#bcbec0"/><path d="M447.39,619.47c-3.71-7.3-3.1-14.79-.68-22.22,4.14-12.68,12.9-20.74,25.65-24.27a346,346,0,0,0,42-14.1c22.66-9.54,43.62-21.8,62.23-38.06,23.87-20.85,39.95-46.41,48.09-77,.22-.83.4-1.61,1.27-2,.95,4-.06,7.94-.3,11.88-1.26,20.36-4.86,40.29-12.32,59.34-9.27,23.64-24.5,42.9-44.29,58.65-20.45,16.28-43.63,27.26-68.41,35A358.56,358.56,0,0,1,447.39,619.47Z" style="fill:#bcbec0"/><path d="M220,744.78c0-3.65-.15-7.31.06-10.95.48-8.22-2.71-14.46-9.55-19-4.29-2.85-8.42-6-12.67-8.85-2.67-1.82-4.18-4.1-4-7.48,1-19.91,2-39.83,2.83-59.76.12-2.66,1.3-3,3.42-2.74,7.28.78,14.61.78,21.91,1.12q29.13,1.38,58.25,2.9c4.65.24,9.29.64,13.94.82A14.29,14.29,0,0,1,299,642a27.1,27.1,0,0,1,16.93,24.85c0,5.31.06,10.64-1,15.9-1.47,3.81-2.82,7.67-4.45,11.42-.89,2-1.28,4.49-3.6,5.65-1.33-3.76-2.62-7.53-4.91-10.87-5.09-7.41-11.7-12.1-21-12.3-5.48-.12-11-.45-16.44-.79-9.27-.59-16.48,3.31-22.11,10.31-13.08,16.26-10.41,43.9,7.46,54.7a4.21,4.21,0,0,1-3.37,1.78C237.71,743.84,228.94,745.24,220,744.78Z" style="fill:#fdfdfd"/><path d="M83,436.91A255.12,255.12,0,0,0,140.83,470a246.49,246.49,0,0,0,66.23,17.64c55.56,6.58,107.63-3.33,155-34.12a192.23,192.23,0,0,0,50-46.91,3.09,3.09,0,0,1,.8-.53c1,.58,1.51-.26,2.16-.72L427.9,396c2,3.43,3.83,7,6,10.24,1.3,1.93.85,3.27-.32,4.91A231.71,231.71,0,0,1,416.22,433c-31.24,34.32-69.71,56.5-114.53,67.89a251.21,251.21,0,0,1-53.22,7.42A273.78,273.78,0,0,1,168,499.2a49.21,49.21,0,0,1-9.24-3.65A257.79,257.79,0,0,1,84.34,440.2C83.08,438.85,83.09,438.84,83,436.91Z" style="fill:#bcbec0"/><path d="M500.62,755.81c21.63-1.39,42.56-5.33,61.31-17,10.71-6.69,19.14-15.39,24-27.28.55-1.37.36-3.55,2.72-3.68.84,2.28.25,4.62.09,6.91-1.44,21.74-3.58,43.38-9,64.58-.37,1.45-.81,2.88-1.17,4.33-3.92,15.69-13.74,26.61-27.68,34.19-12.44,6.76-25.92,10.11-39.83,12a124,124,0,0,1-14.4,1.24c-3.85.07-3.83.08-4.14-3.6-1.22-14.77-.69-29.58-1-44.38a7,7,0,0,1,.38-2.94C495.51,772.26,497.82,764,500.62,755.81Z" style="fill:#bcbec0"/><path d="M71.9,113.15C93.08,86.23,119,64.9,148.9,48.39c3.2-1.76,6.54-3.27,9.71-5.07,8-4.52,16.68-6.19,25.66-7.22a242.88,242.88,0,0,1,36.36-1.68c63.24,2.26,119.11,23.48,167,65.11.87.77,1.73,1.56,2.56,2.38a4.62,4.62,0,0,1,.49,1.12c-6.73,1.72-13.58,2.8-20.13,5-2,.68-3.05-.92-4.3-1.91A244.79,244.79,0,0,0,334,84.39,231.05,231.05,0,0,0,254.9,57.1a264.78,264.78,0,0,0-39.72-3.34q-81.3,0-139,57.36c-1.07,1.06-2.17,2.07-3.25,3.1Z" style="fill:#fdfdfd"/><path d="M412.51,501.9c1.88,3.76,1.88,4-.85,6.17A269.37,269.37,0,0,1,379.54,530a255.21,255.21,0,0,1-56.6,24.69A230.41,230.41,0,0,1,281,563.14a242.46,242.46,0,0,1-41.38.54,193.55,193.55,0,0,1-61.33-14.57c-5.38-2.23-10.67-4.67-16-7-1.22-.54-2.36-1.29-3.78-.91,1.22-8.2,2.44-16.41,3.62-24.41,1.47-1.15,2.47-.1,3.43.3a270,270,0,0,0,64.54,18.5,278.47,278.47,0,0,0,174.44-29.64C407.18,504.51,409.54,502.59,412.51,501.9Z" style="fill:#bcbec0"/><path d="M137.61,732.64c.23-7.29.37-14.59.72-21.88.8-16.6,1.78-33.19,2.54-49.8S156,634.05,168.11,634.7c4.15.22,8.31.18,12.47.36,3.4.14,3.53.22,3.39,3.79q-.67,17.7-1.53,35.38c-.38,8.13-1,16.26-1.21,24.39a19.08,19.08,0,0,0,8.19,16.76c4.31,3.11,8.56,6.34,13.07,9.13,4,2.5,5.63,5.79,5.13,10.42-.36,3.29,0,6.64-.71,9.91-5.83.07-11.62-.46-17.42-.87-7.15-.5-14.21-1.44-21.24-2.64A159.1,159.1,0,0,1,137.61,732.64Z" style="fill:#fdfdfd"/><path d="M234.65,19.94C319.81,6,412,38.82,468,105.23c-5.48-1.41-10.39-3.33-15.64-4.17A134.74,134.74,0,0,0,417,100a11.43,11.43,0,0,1-10.16-3.38C373.77,65.15,335.48,42.55,291.44,30,275.43,25.39,257.22,22.13,234.65,19.94Z" style="fill:#fdfdfd"/><path d="M129.7,851.86c.71,10.49-.49,20.93-.54,31.4,0,4.65,0,9.3,0,13.67-1.52,1.36-2.49.28-3.44-.13-6.61-2.83-11.68-7.52-15.77-13.35-6.52-9.27-10.09-19.81-12.72-30.65A228.4,228.4,0,0,1,90.5,807c-.4-11.32.6-22.6,1.82-33.83,1.85-17,4.68-33.9,7.74-50.74.26-1.46.69-2.88,1.23-5.12a45,45,0,0,0,15.82,13.29c-.12,2.66,0,5.34-.39,8-1.55,11.83-2.94,23.68-2.82,35.64.06,6.15-.23,12.33.4,18.42.85,8.22,2.33,16.39,3.7,24.55a147,147,0,0,0,8.56,30.59C127.19,849.34,127.39,851.48,129.7,851.86Z" style="fill:#fdfdfd"/><path d="M126,1132.6c7.32,1.43,14.4,3.86,21.75,5.23,10.93,2,21.86,3.89,32.94,5,13.09,1.29,26.17,2.24,39.3,1.63,9.1-.43,18.21-1.18,26.72-5.15,12.39-5.8,21.13-15.29,27.86-26.91,8.12-14,12.4-29.3,15.35-45.06,3.26-17.41,3.75-35,2.78-52.62-.64-11.72-1.63-23.5-4.84-34.92a33.52,33.52,0,0,1,7.81-1.75c.7,8.11,1.43,16.05,2.06,24a557.42,557.42,0,0,0,11.55,77.86c.71,3.16,0,4.75-2.45,6.55a116,116,0,0,0-23.47,22.25c-5.6,7.15-9.91,14.94-11.47,24a33.38,33.38,0,0,0,2.7,19.94c.41.89.8,1.79,1.31,2.94-2.87,1.75-6,2.07-9,2.63-36.8,7-73.1,5.14-108.77-6.57a89.75,89.75,0,0,1-26.14-13.2C129.69,1136.78,127.37,1135.13,126,1132.6Z" style="fill:#bcbec0"/><path d="M355.64,719c-3.07-8.17-2-15.5,4.19-22a6.19,6.19,0,0,1,5.75-2,363.2,363.2,0,0,0,52.22,2.54c23.09-.61,46.06-2.51,68.26-9.62a85.56,85.56,0,0,0,15.21-6.07c2.51-1.38,4-.78,5.23,1.44.8,1.44,2.06,2.62,2.47,4.29a18.69,18.69,0,0,1-2.89,7.85c-4.77,8.18-12,13.28-20.7,16.28a207.83,207.83,0,0,1-56,10.87c-9.71.56-19.43,1.33-29.29.6-11.41-.85-22.79-1.59-34.14-3.14C362.57,719.6,359.19,718.29,355.64,719Z" style="fill:#fdfdfd"/><path d="M144.82,802.9c1.31.19,1.91,1.26,2.59,2.17a72.45,72.45,0,0,0,31.72,24.21,132.93,132.93,0,0,0,37.22,8.61c28,2.6,56.14,1.56,84.22,2,1.77,0,3.66-.7,5.31.57-2.55.19-3.59,1.68-4.23,4.09a185.6,185.6,0,0,0-4.81,24.93c-.78,6.37-.74,6.21-7,6.39-11.57.34-22.77-2.29-34.12-3.89-21.11-3-41-9.78-60-19-13.4-6.5-25.7-14.65-36-25.6-6-6.36-11-13.33-14.08-21.58C145.26,804.84,145.08,803.86,144.82,802.9Z" style="fill:#bcbec0"/><path d="M220,744.78c8.91.46,17.68-.94,26.45-2.1a4.21,4.21,0,0,0,3.37-1.78c3.36,1.38,6.65,2.88,10.42,3,4,.08,8,.48,12,.63,3.81.15,7.65.69,11.44-.12,11.6-2.48,18.23-10.32,22.1-20.92,2.82-7.71,2.68-15.64,1.12-23.59,2.32-1.16,2.71-3.62,3.6-5.65,1.63-3.75,3-7.61,4.45-11.42.27,11.8-1,23.54-1.39,35.31-.38,12-1.16,23.9-1.8,35.85s-7.66,21.52-18.52,25.34A33.55,33.55,0,0,1,280,780.7q-23.38-1.32-46.79-2.55c-3.32-.17-6.65-.22-10-.35-4.15-.16-4.26-.17-4.15-4.13C219.31,764,219.7,754.41,220,744.78Z" style="fill:#bcbec0"/><path d="M378.8,205.15c-.24,9.85,3.78,18.23,9.95,25.36,11.14,12.88,25.76,18.78,42.6,19.7,11.93.66,23.46-1.58,34.93-4.37,5.16-1.26,10.33-2.37,15.58-3.17,4.59-.7,6.68.85,8.09,5.2,1.26,3.91.34,7.56-.69,11.23a82.26,82.26,0,0,1-5.67,14.34c-6.23,12.48-12.44,25-16.6,38.35-.34,1.1-.47,2.38-2.08,2.33-1.65-2.2-1.66-4.93-2.35-7.44-1.37-5-2.51-10-4.07-14.89-.7-2.2-.14-3.32,1.61-4.52a83.14,83.14,0,0,0,13.57-11.71,56.87,56.87,0,0,0,10.05-14.18c1.64-3.43,1.27-5.77-1-7s-4.19-.53-6.32,2.23c-6.14,8-14.29,13.33-23.24,17.56a110.87,110.87,0,0,1-11.95,4.94c-7,2.35-14.38,2.76-20.88-.78-20.16-11-35.92-26.21-42.94-48.79A35.32,35.32,0,0,1,378.8,205.15Z" style="fill:#bcbec0"/><path d="M284.83,966.59a144.26,144.26,0,0,0-19.9-45.92,65.64,65.64,0,0,0-35.17-27c-24.49-8.19-47.87-18.92-69.24-33.63-3.55-2.45-7-5.11-10.39-7.73-.93-.71-1.78-1.51-3.06-1.44a62.13,62.13,0,0,1,.53-10.14c1-.79,1.49-.16,1.91.25,16.73,16.62,37.05,27.31,58.77,35.69,17,6.54,34.52,10.58,52.5,13.16,10.2,1.46,20.37,3.05,30.71,2.83,2.4-.06,3.16.73,3,3.17a551.85,551.85,0,0,0,.21,63.79c.29,5.07.22,5.09-5,6.28C288.08,966.22,286.56,967.11,284.83,966.59Z" style="fill:#bcbec0"/><path d="M355.64,719c3.55-.69,6.93.62,10.34,1.08,11.35,1.55,22.73,2.29,34.14,3.14,9.86.73,19.58,0,29.29-.6a207.83,207.83,0,0,0,56-10.87c8.72-3,15.93-8.1,20.7-16.28A18.69,18.69,0,0,0,509,687.6c5.19,8.83,5.14,18,1.48,27.25a17.49,17.49,0,0,1-10.72,10.37A208.59,208.59,0,0,1,450.94,737a264.7,264.7,0,0,1-32.34,1.94c-17.85,0-35.49-2.09-53-5.12a6.69,6.69,0,0,1-5.43-3.78C358.39,726.41,356.26,723,355.64,719Z" style="fill:#bcbec0"/><path d="M276.16,522.08c70-11.07,127.22-43.18,169.36-101,2.36,1.9,4.51,3.72,6.74,5.42,4.11,3.14,4.14,3.11,2.39,8.16-3.66,10.51-9.59,19.7-16.51,28.29a20.19,20.19,0,0,1-3.32,3,257,257,0,0,1-116,52.22,236.76,236.76,0,0,1-38.67,3.9Z" style="fill:#bcbec0"/><path d="M137.61,732.64a159.1,159.1,0,0,0,30.64,8.69c7,1.2,14.09,2.14,21.24,2.64,5.8.41,11.59.94,17.42.87.31,9.65-.22,19.28-.3,28.93,0,2.43-.87,3.2-3.23,3.06-8.64-.5-17.28-.87-25.93-1.3-5.31-.26-10.63-.8-15.95-.72-10.91.16-22.7-9.36-24.46-22.3A69.38,69.38,0,0,1,137.61,732.64Z" style="fill:#bcbec0"/><path d="M403.47,288.44c-7.47,5-15,6.71-23.12,5.23C369,291.6,360.63,285,355.23,275c-7.92-14.62-7.94-29.52-.22-44.33.68-1.32,1.63-2.5,2.42-3.76a3.57,3.57,0,0,1,1.49-1.63A82.25,82.25,0,0,0,374.78,261C382.74,271.49,392.62,280,403.47,288.44Z" style="fill:#bcbec0"/><path d="M329,724.79c-.07-1.65-.27-3.31-.2-5,.68-15.1,1.18-30.21,2.18-45.28.74-11.23-.5-21.84-7.24-31.35,20.14-3.49,34.6,11.66,33.77,28.77-.19,3.95-1.1,6.81-4.79,9.43-13.16,9.36-17.28,22.52-14.33,38.12.39,2.12,1,4.19,1.52,6.28-2,2-4.19,1-6.32.3C332.05,725.6,330.72,724.45,329,724.79Z" style="fill:#fdfdfd"/><path d="M329,724.79c1.75-.34,3.08.81,4.59,1.31,2.13.71,4.3,1.68,6.32-.3,3.2,8,6.75,15.87,12.82,22.24a2.63,2.63,0,0,1,.8,2.23c-.58,4.77-.16,9.64-1.71,14.3a27.66,27.66,0,0,1-28,18.89c-2.48-.17-5-.42-7.43-.64-.34-1.69,1.05-2.41,1.79-3.39a43,43,0,0,0,8.77-24.94c.26-8.46.78-16.91,1.22-25.37C328.21,727.65,328.06,726.11,329,724.79Z" style="fill:#bcbec0"/><path d="M452.47,339c4.71,23.18,7.85,46.49,6.81,70.5-15.23-8-27.33-45.81-23-70.56C441.66,340.5,447.06,341.64,452.47,339Z" style="fill:#bcbec0"/><path d="M129.7,851.86c-2.31-.38-2.51-2.52-3.14-4.09A147,147,0,0,1,118,817.18c-1.37-8.16-2.85-16.33-3.7-24.55-.63-6.09-.34-12.27-.4-18.42-.12-12,1.27-23.81,2.82-35.64.34-2.62.27-5.3.39-8,5.45,2,4.84.76,4.68,6.35A278.8,278.8,0,0,0,127,800.9,56.8,56.8,0,0,0,130,811.41a23.26,23.26,0,0,1,1.7,12.14C130.53,833,131.34,842.49,129.7,851.86Z" style="fill:#bcbec0"/><path d="M340.33,150.06a10,10,0,0,1,1.92.37c11.5,4.51,23.29,5.52,35.56,4.08,9.19-1.08,18.2-3.39,27.46-3.83,4.86-.23,9.8-1.5,14.55.67-2.45,1.77-5.46,2.16-8.17,3.3a132.17,132.17,0,0,0-21.82,11.76c-1.37.91-2.65,1.91-4.45,2-10.82.5-21.55.32-31.82-3.74-6.25-2.47-11.33-6.21-13.15-13.15A7,7,0,0,1,340.33,150.06Z" style="fill:#bcbec0"/><path d="M399.63,314.45c3.49,4.43,5.72,9.27,5.18,15.1a17.35,17.35,0,0,1-2.62,7.93,13.08,13.08,0,0,1-19.05,3.8c-1.48-1-2.79-2.32-4.18-3.49-1.75-3.74-3.48-7.41-3.29-11.78.25-6.1,2.42-11,7.85-14s10.54-1.65,15.26,1.94A8,8,0,0,0,399.63,314.45Z" style="fill:#bcbec0"/><path d="M137.53,568.85c-2.22,17-4.35,33.92-6.67,50.86-1.46,10.69-2.06,21.48-3.92,32.12-.53,3-1.78,4.54-4.86,5.21-2.87.63-5.56,2.06-8.86,3.34,7-30.83,14.89-61.08,22.89-91.31Z" style="fill:#fdfdfd"/><path d="M452.47,339c-5.41,2.65-10.81,1.51-16.21-.06l0-2.78a1.76,1.76,0,0,0,.41-2.16c.56-8.09,3.94-20.78,7.88-29.19A286.3,286.3,0,0,1,451.86,336c-.06.14-.19.31-.15.41a4.44,4.44,0,0,0,.42.73Z" style="fill:#fdfdfd"/><path d="M111.79,688.66c1.72-7,6.14-11.68,13.25-15.11-.45,8.26-.85,15.77-1.26,23.28-1.79,1-3.13-.32-4.65-.88-2.81-1-4.78-3.61-7.81-4.22l.07-1.79A.92.92,0,0,0,111.79,688.66Z" style="fill:#fdfdfd"/><path d="M111.32,691.73c3,.61,5,3.18,7.81,4.22,1.52.56,2.86,1.85,4.65.88-.27,5.6-.55,11.2-.82,16.84C115.1,711.61,109.87,701.59,111.32,691.73Z" style="fill:#bcbec0"/><path d="M427.9,396,415,405.33c-.65.46-1.16,1.3-2.16.72l12-17.74A24.16,24.16,0,0,1,427.9,396Z" style="fill:#fdfdfd"/><path d="M71.9,113.15l1,1.07c-1.56,2.75-4.13,4.61-6.17,6.93-.22-.26-.44-.52-.67-.77C67.86,117.85,69.44,115.14,71.9,113.15Z" style="fill:#b9aebd"/><path d="M249.91,1076.67c2.43.67,4.19,2.32,5.89,4.14-2.77-.78-5.55-1.45-7.88-3.24C248.59,1077.29,249.62,1077.82,249.91,1076.67Z" style="fill:#998ca2"/><path d="M137.53,568.85l-1.42.22a22.06,22.06,0,0,1,2.68-8.5C138.52,563.84,138.38,566.39,137.53,568.85Z" style="fill:#998ca2"/><path d="M66.06,120.38c.23.25.45.51.67.77a10.94,10.94,0,0,1-3.3,3.41A7.85,7.85,0,0,1,66.06,120.38Z" style="fill:#998ca2"/><path d="M65.13,326c.54.26.76.94.36,1.12s-.53-.49-.62-.89Z" style="fill:#998ca2"/><path d="M436.7,334a1.76,1.76,0,0,1-.41,2.16A1.82,1.82,0,0,1,436.7,334Z" style="fill:#b9aebd"/><path d="M421.78,151a1.77,1.77,0,0,1,2.19-.6A1.91,1.91,0,0,1,421.78,151Z" style="fill:#b9aebd"/><path d="M144.07,801.76l.76,1.15C144.14,802.82,143.86,802.45,144.07,801.76Z" style="fill:#b9aebd"/><path d="M588.94,705.11a.82.82,0,0,1,.11-1.29A.77.77,0,0,1,588.94,705.11Z" style="fill:#b9aebd"/><path d="M452.13,337.15a4.44,4.44,0,0,1-.42-.73c0-.1.09-.27.15-.41a4.25,4.25,0,0,1,.44.74C452.34,336.84,452.19,337,452.13,337.15Z" style="fill:#b9aebd"/><path d="M111.79,688.66a.92.92,0,0,1-.4,1.28A.86.86,0,0,1,111.79,688.66Z" style="fill:#bcbec0"/><path d="M307.74,841l.35-.56c0,.1,0,.23,0,.3a1.74,1.74,0,0,1-.31.29Z" style="fill:#b9aebd"/><path d="M306.89,699.85c1.56,7.95,1.7,15.88-1.12,23.59-3.87,10.6-10.5,18.44-22.1,20.92-3.79.81-7.63.27-11.44.12-4-.15-8-.55-12-.63-3.77-.07-7.06-1.57-10.42-3-17.87-10.8-20.54-38.44-7.46-54.7,5.63-7,12.84-10.9,22.11-10.31,5.47.34,11,.67,16.44.79,9.34.2,15.95,4.89,21,12.3C304.27,692.32,305.56,696.09,306.89,699.85ZM279,704.49c-.09-4.85-2.12-9-5.07-12.64-6.17-7.66-15.66-8.08-22.36-.86-5.07,5.46-7.49,12-6.49,19.53-.82,7.24,1.73,13.38,6.63,18.48,5.43,5.65,12.79,6.11,18.73,1A23.66,23.66,0,0,0,279,709.43a4.74,4.74,0,0,0,.25-3.17A1.12,1.12,0,0,0,279,704.49Zm5-16.77c8.73,15.93,7.74,30.95-1.73,45.75,8.51-1.69,14.58-10.46,15.3-21.61S293,690.86,284,687.72Z" style="fill:#381d46"/><path d="M245.09,710.52c-1-7.56,1.42-14.07,6.49-19.53,6.7-7.22,16.19-6.8,22.36.86,2.95,3.66,5,7.79,5.07,12.64a1.39,1.39,0,0,0,.26,1.77,4.76,4.76,0,0,1-.24,3.16c-1.4,1.37-2.74,2.81-4.2,4.12-3.92,3.51-8.31,5.64-13.8,5.45C254.24,718.76,249.31,715.39,245.09,710.52Z" style="fill:#85b6e2"/><path d="M245.09,710.52c4.22,4.87,9.15,8.24,15.94,8.47,5.49.19,9.88-1.94,13.8-5.45,1.46-1.31,2.8-2.75,4.2-4.12A23.7,23.7,0,0,1,270.45,730c-5.94,5.1-13.3,4.64-18.73-1C246.82,723.9,244.27,717.76,245.09,710.52Z" style="fill:#bcbec0"/><path d="M284,687.72c9,3.14,14.29,12.87,13.57,24.14s-6.79,19.92-15.3,21.61C291.76,718.67,292.75,703.65,284,687.72Z" style="fill:#d1d3d4"/><path d="M279.27,706.26a1.39,1.39,0,0,1-.26-1.77A1.12,1.12,0,0,1,279.27,706.26Z" style="fill:#998ca2"/></g></g></svg>