<?xml version="1.0" encoding="UTF-8"?>
<svg version="1.1" xmlns="http://www.w3.org/2000/svg" width="512" height="512">
<path d="M0 0 C1.01790619 0.00215515 2.03581238 0.0043103 3.08456421 0.00653076 C17.69363523 0.05620146 32.02575853 0.30709809 46.375 3.3125 C47.34985352 3.51117676 48.32470703 3.70985352 49.32910156 3.91455078 C108.89482498 16.37463238 165.24866419 48.2648637 202.375 97.3125 C202.79023926 97.85132812 203.20547852 98.39015625 203.63330078 98.9453125 C228.13415115 130.81517547 244.62642134 167.36831241 252.6875 206.75 C252.83485596 207.46889404 252.98221191 208.18778809 253.1340332 208.9284668 C256.10789088 224.57475609 256.74800362 240.04818046 256.6875 255.9375 C256.68534485 256.95540619 256.6831897 257.97331238 256.68096924 259.02206421 C256.63129854 273.63113523 256.38040191 287.96325853 253.375 302.3125 C253.07698486 303.77478027 253.07698486 303.77478027 252.77294922 305.26660156 C242.52138226 354.27446698 220.18217348 398.27864199 185.375 434.3125 C184.77606934 434.93334473 184.17713867 435.55418945 183.56005859 436.19384766 C175.89623497 444.09500259 168.15501606 451.64016955 159.375 458.3125 C158.83472168 458.72918945 158.29444336 459.14587891 157.73779297 459.57519531 C125.8687531 484.07334707 89.31685217 500.56439938 49.9375 508.625 C49.21860596 508.77235596 48.49971191 508.91971191 47.7590332 509.0715332 C33.08339502 511.86090125 18.55831162 512.66142619 3.64770508 512.62817383 C0.70811513 512.6250221 -2.2304558 512.64854926 -5.16992188 512.67382812 C-18.54306192 512.71848737 -31.43916711 511.51301542 -44.625 509.3125 C-46.33055054 509.03031616 -46.33055054 509.03031616 -48.07055664 508.74243164 C-50.6662622 508.27617402 -53.23774939 507.7574418 -55.8125 507.1875 C-57.20142456 506.88054199 -57.20142456 506.88054199 -58.6184082 506.56738281 C-103.71300222 496.08183329 -144.40193368 473.34639441 -177.625 441.3125 C-178.58889648 440.38945068 -178.58889648 440.38945068 -179.57226562 439.44775391 C-188.74836539 430.62136647 -197.09816554 421.58141996 -204.625 411.3125 C-205.26211914 410.45857666 -205.26211914 410.45857666 -205.91210938 409.58740234 C-212.42768015 400.84658179 -218.26088547 391.80163672 -223.625 382.3125 C-224.0271875 381.60528809 -224.429375 380.89807617 -224.84375 380.16943359 C-237.8691741 357.03404164 -246.61801461 331.86287591 -251.9375 305.875 C-252.08485596 305.15610596 -252.23221191 304.43721191 -252.3840332 303.6965332 C-255.35789088 288.05024391 -255.99800362 272.57681954 -255.9375 256.6875 C-255.93534485 255.66959381 -255.9331897 254.65168762 -255.93096924 253.60293579 C-255.88129854 238.99386477 -255.63040191 224.66174147 -252.625 210.3125 C-252.42632324 209.33764648 -252.22764648 208.36279297 -252.02294922 207.35839844 C-241.90232806 158.9765226 -219.9858123 114.98821731 -185.625 79.3125 C-184.99287598 78.65314453 -184.36075195 77.99378906 -183.70947266 77.31445312 C-174.56502521 67.82619695 -165.26765991 59.0862956 -154.625 51.3125 C-153.47394983 50.45443848 -152.32290823 49.59636549 -151.171875 48.73828125 C-142.98224019 42.70072604 -134.47961724 37.31792698 -125.625 32.3125 C-124.91778809 31.9103125 -124.21057617 31.508125 -123.48193359 31.09375 C-100.34654164 18.0683259 -75.17537591 9.31948539 -49.1875 4 C-48.46860596 3.85264404 -47.74971191 3.70528809 -47.0090332 3.5534668 C-31.36274391 0.57960912 -15.88931954 -0.06050362 0 0 Z M-115.515625 130.8046875 C-116.38960937 131.67480469 -117.26359375 132.54492188 -118.1640625 133.44140625 C-119.50597656 134.80072266 -119.50597656 134.80072266 -120.875 136.1875 C-121.78507813 137.08597656 -122.69515625 137.98445312 -123.6328125 138.91015625 C-124.93605469 140.21919922 -124.93605469 140.21919922 -126.265625 141.5546875 C-127.05485352 142.3472998 -127.84408203 143.13991211 -128.65722656 143.95654297 C-131.7456501 147.65422127 -132.60874567 150.32098598 -132.6875 155.125 C-131.32058109 163.59320439 -121.55492654 170.52225212 -115.75219727 176.29882812 C-114.46319267 177.58805176 -114.46319267 177.58805176 -113.14814758 178.90332031 C-110.81572885 181.23516611 -108.48112277 183.56479367 -106.1454823 185.89341164 C-103.69600328 188.3365943 -101.2493991 190.78265257 -98.80247498 193.22839355 C-94.17939068 197.84838292 -89.55376566 202.46581959 -84.92719835 207.08232069 C-79.6554944 212.3428061 -74.38666569 217.60616735 -69.11806405 222.86975956 C-58.29021515 233.68718574 -47.45880184 244.50103558 -36.625 255.3125 C-38.05823088 258.58737736 -39.81320246 260.74258359 -42.34472656 263.25254822 C-43.11868774 264.02492325 -43.89264893 264.79729828 -44.69006348 265.59307861 C-45.53999878 266.43111023 -46.38993408 267.26914185 -47.265625 268.13256836 C-48.63853541 269.49853012 -50.0114446 270.86449311 -51.38430786 272.23050225 C-52.85880775 273.69575209 -54.33574114 275.15850911 -55.81335449 276.62061882 C-58.89482292 279.67024137 -61.9680904 282.7280389 -65.04003906 285.7872467 C-72.67108003 293.38422081 -80.31138674 300.97185808 -87.95654297 308.55462646 C-93.89904973 314.44866919 -99.83833369 320.34587062 -105.76713181 326.25370699 C-108.81941531 329.29447491 -111.8785084 332.32816798 -114.94290161 335.35672939 C-117.2960517 337.68616074 -119.63942036 340.02535665 -121.984375 342.36303711 C-122.8343103 343.19904449 -123.68424561 344.03505188 -124.55993652 344.89639282 C-125.7208783 346.0591851 -125.7208783 346.0591851 -126.90527344 347.24546814 C-127.57927185 347.91410354 -128.25327026 348.58273893 -128.94769287 349.27163601 C-131.84992236 352.80292468 -132.61292094 355.5756774 -132.6875 360.125 C-131.74677487 365.58727498 -128.44328185 368.51211635 -124.625 372.3125 C-123.41540627 373.56779713 -122.20719812 374.82443013 -121 376.08203125 C-119.66818391 377.45199746 -118.33483103 378.82047123 -117 380.1875 C-116.35466309 380.85467041 -115.70932617 381.52184082 -115.04443359 382.20922852 C-110.50895725 386.77332169 -107.47229941 389.26582296 -100.8125 389.375 C-92.34429561 388.00808109 -85.41524788 378.24242654 -79.63867188 372.43969727 C-78.77918945 371.58036087 -77.91970703 370.72102448 -77.03417969 369.83564758 C-74.70233389 367.50322885 -72.37270633 365.16862277 -70.04408836 362.8329823 C-67.6009057 360.38350328 -65.15484743 357.9368991 -62.70910645 355.48997498 C-58.08911708 350.86689068 -53.47168041 346.24126566 -48.85517931 341.61469835 C-43.5946939 336.3429944 -38.33133265 331.07416569 -33.06774044 325.80556405 C-22.25031426 314.97771515 -11.43646442 304.14630184 -0.625 293.3125 C2.64987736 294.74573088 4.80508359 296.50070246 7.31504822 299.03222656 C8.08742325 299.80618774 8.85979828 300.58014893 9.65557861 301.37756348 C10.49361023 302.22749878 11.33164185 303.07743408 12.19506836 303.953125 C13.56103012 305.32603541 14.92699311 306.6989446 16.29300225 308.07180786 C17.75825209 309.54630775 19.22100911 311.02324114 20.68311882 312.50085449 C23.73274137 315.58232292 26.7905389 318.6555904 29.8497467 321.72753906 C37.44672081 329.35858003 45.03435808 336.99888674 52.61712646 344.64404297 C58.51116919 350.58654973 64.40837062 356.52583369 70.31620699 362.45463181 C73.35697491 365.50691531 76.39066798 368.5660084 79.41922939 371.63040161 C81.74866074 373.9835517 84.08785665 376.32692036 86.42553711 378.671875 C87.26154449 379.5218103 88.09755188 380.37174561 88.95889282 381.24743652 C90.1216851 382.4083783 90.1216851 382.4083783 91.30796814 383.59277344 C92.31092124 384.60377106 92.31092124 384.60377106 93.33413601 385.63519287 C96.86542468 388.53742236 99.6381774 389.30042094 104.1875 389.375 C109.64977498 388.43427487 112.57461635 385.13078185 116.375 381.3125 C117.63029713 380.10290627 118.88693013 378.89469812 120.14453125 377.6875 C121.51449746 376.35568391 122.88297123 375.02233103 124.25 373.6875 C124.91717041 373.04216309 125.58434082 372.39682617 126.27172852 371.73193359 C130.83582169 367.19645725 133.32832296 364.15979941 133.4375 357.5 C132.07058109 349.03179561 122.30492654 342.10274788 116.50219727 336.32617188 C115.64286087 335.46668945 114.78352448 334.60720703 113.89814758 333.72167969 C111.56572885 331.38983389 109.23112277 329.06020633 106.8954823 326.73158836 C104.44600328 324.2884057 101.9993991 321.84234743 99.55247498 319.39660645 C94.92939068 314.77661708 90.30376566 310.15918041 85.67719835 305.54267931 C80.4054944 300.2821939 75.13666569 295.01883265 69.86806405 289.75524044 C59.04021515 278.93781426 48.20880184 268.12396442 37.375 257.3125 C38.80823088 254.03762264 40.56320246 251.88241641 43.09472656 249.37245178 C44.25566833 248.21388924 44.25566833 248.21388924 45.44006348 247.03192139 C46.28999878 246.19388977 47.13993408 245.35585815 48.015625 244.49243164 C49.38853541 243.12646988 50.7614446 241.76050689 52.13430786 240.39449775 C53.60880775 238.92924791 55.08574114 237.46649089 56.56335449 236.00438118 C59.64482292 232.95475863 62.7180904 229.8969611 65.79003906 226.8377533 C73.42108003 219.24077919 81.06138674 211.65314192 88.70654297 204.07037354 C94.64904973 198.17633081 100.58833369 192.27912938 106.51713181 186.37129301 C109.56941531 183.33052509 112.6285084 180.29683202 115.69290161 177.26827061 C118.0460517 174.93883926 120.38942036 172.59964335 122.734375 170.26196289 C123.5843103 169.42595551 124.43424561 168.58994812 125.30993652 167.72860718 C126.4708783 166.5658149 126.4708783 166.5658149 127.65527344 165.37953186 C128.66627106 164.37657876 128.66627106 164.37657876 129.69769287 163.35336399 C132.59992236 159.82207532 133.36292094 157.0493226 133.4375 152.5 C132.49677487 147.03772502 129.19328185 144.11288365 125.375 140.3125 C124.16540627 139.05720287 122.95719812 137.80056987 121.75 136.54296875 C120.41818391 135.17300254 119.08483103 133.80452877 117.75 132.4375 C117.10466309 131.77032959 116.45932617 131.10315918 115.79443359 130.41577148 C111.25895725 125.85167831 108.22229941 123.35917704 101.5625 123.25 C93.09429561 124.61691891 86.16524788 134.38257346 80.38867188 140.18530273 C79.52918945 141.04463913 78.66970703 141.90397552 77.78417969 142.78935242 C75.45233389 145.12177115 73.12270633 147.45637723 70.79408836 149.7920177 C68.3509057 152.24149672 65.90484743 154.6881009 63.45910645 157.13502502 C58.83911708 161.75810932 54.22168041 166.38373434 49.60517931 171.01030165 C44.3446939 176.2820056 39.08133265 181.55083431 33.81774044 186.81943595 C23.00031426 197.64728485 12.18646442 208.47869816 1.375 219.3125 C-1.89987736 217.87926912 -4.05508359 216.12429754 -6.56504822 213.59277344 C-7.33742325 212.81881226 -8.10979828 212.04485107 -8.90557861 211.24743652 C-9.74361023 210.39750122 -10.58164185 209.54756592 -11.44506836 208.671875 C-12.81103012 207.29896459 -14.17699311 205.9260554 -15.54300225 204.55319214 C-17.00825209 203.07869225 -18.47100911 201.60175886 -19.93311882 200.12414551 C-22.98274137 197.04267708 -26.0405389 193.9694096 -29.0997467 190.89746094 C-36.69672081 183.26641997 -44.28435808 175.62611326 -51.86712646 167.98095703 C-57.76116919 162.03845027 -63.65837062 156.09916631 -69.56620699 150.17036819 C-72.60697491 147.11808469 -75.64066798 144.0589916 -78.66922939 140.99459839 C-80.99866074 138.6414483 -83.33785665 136.29807964 -85.67553711 133.953125 C-86.51154449 133.1031897 -87.34755188 132.25325439 -88.20889282 131.37756348 C-89.3716851 130.2166217 -89.3716851 130.2166217 -90.55796814 129.03222656 C-91.56092124 128.02122894 -91.56092124 128.02122894 -92.58413601 126.98980713 C-95.50549967 124.5888514 -98.32794037 123.4787897 -102.0625 123 C-107.69812419 123.68727124 -111.60455679 126.91029254 -115.515625 130.8046875 Z " fill="#FF4040" transform="translate(255.625,-0.3125)"/>
</svg>
