<?xml version="1.0" encoding="UTF-8"?>
<svg version="1.1" xmlns="http://www.w3.org/2000/svg" width="512" height="512">
<path d="M0 0 C1.01790619 0.00215515 2.03581238 0.0043103 3.08456421 0.00653076 C17.69363523 0.05620146 32.02575853 0.30709809 46.375 3.3125 C47.34985352 3.51117676 48.32470703 3.70985352 49.32910156 3.91455078 C108.89482498 16.37463238 165.24866419 48.2648637 202.375 97.3125 C202.79023926 97.85132812 203.20547852 98.39015625 203.63330078 98.9453125 C228.13415115 130.81517547 244.62642134 167.36831241 252.6875 206.75 C252.83485596 207.46889404 252.98221191 208.18778809 253.1340332 208.9284668 C256.10789088 224.57475609 256.74800362 240.04818046 256.6875 255.9375 C256.68534485 256.95540619 256.6831897 257.97331238 256.68096924 259.02206421 C256.63129854 273.63113523 256.38040191 287.96325853 253.375 302.3125 C253.07698486 303.77478027 253.07698486 303.77478027 252.77294922 305.26660156 C242.52138226 354.27446698 220.18217348 398.27864199 185.375 434.3125 C184.77606934 434.93334473 184.17713867 435.55418945 183.56005859 436.19384766 C175.89623497 444.09500259 168.15501606 451.64016955 159.375 458.3125 C158.83472168 458.72918945 158.29444336 459.14587891 157.73779297 459.57519531 C125.8687531 484.07334707 89.31685217 500.56439938 49.9375 508.625 C49.21860596 508.77235596 48.49971191 508.91971191 47.7590332 509.0715332 C33.08339502 511.86090125 18.55831162 512.66142619 3.64770508 512.62817383 C0.70811513 512.6250221 -2.2304558 512.64854926 -5.16992188 512.67382812 C-18.54306192 512.71848737 -31.43916711 511.51301542 -44.625 509.3125 C-46.33055054 509.03031616 -46.33055054 509.03031616 -48.07055664 508.74243164 C-50.6662622 508.27617402 -53.23774939 507.7574418 -55.8125 507.1875 C-57.20142456 506.88054199 -57.20142456 506.88054199 -58.6184082 506.56738281 C-103.71300222 496.08183329 -144.40193368 473.34639441 -177.625 441.3125 C-178.58889648 440.38945068 -178.58889648 440.38945068 -179.57226562 439.44775391 C-188.74836539 430.62136647 -197.09816554 421.58141996 -204.625 411.3125 C-205.26211914 410.45857666 -205.26211914 410.45857666 -205.91210938 409.58740234 C-212.42768015 400.84658179 -218.26088547 391.80163672 -223.625 382.3125 C-224.0271875 381.60528809 -224.429375 380.89807617 -224.84375 380.16943359 C-237.8691741 357.03404164 -246.61801461 331.86287591 -251.9375 305.875 C-252.08485596 305.15610596 -252.23221191 304.43721191 -252.3840332 303.6965332 C-255.35789088 288.05024391 -255.99800362 272.57681954 -255.9375 256.6875 C-255.93534485 255.66959381 -255.9331897 254.65168762 -255.93096924 253.60293579 C-255.88129854 238.99386477 -255.63040191 224.66174147 -252.625 210.3125 C-252.42632324 209.33764648 -252.22764648 208.36279297 -252.02294922 207.35839844 C-241.90232806 158.9765226 -219.9858123 114.98821731 -185.625 79.3125 C-184.99287598 78.65314453 -184.36075195 77.99378906 -183.70947266 77.31445312 C-174.56502521 67.82619695 -165.26765991 59.0862956 -154.625 51.3125 C-153.47394983 50.45443848 -152.32290823 49.59636549 -151.171875 48.73828125 C-142.98224019 42.70072604 -134.47961724 37.31792698 -125.625 32.3125 C-124.91778809 31.9103125 -124.21057617 31.508125 -123.48193359 31.09375 C-100.34654164 18.0683259 -75.17537591 9.31948539 -49.1875 4 C-48.46860596 3.85264404 -47.74971191 3.70528809 -47.0090332 3.5534668 C-31.36274391 0.57960912 -15.88931954 -0.06050362 0 0 Z M111.78962708 154.570755 C111.16576841 155.19557823 110.54190974 155.82040145 109.89914626 156.46415871 C107.82244241 158.54759834 105.756672 160.64154379 103.69067383 162.7355957 C102.19929863 164.23600746 100.70721998 165.73572028 99.2144928 167.23478699 C96.00789501 170.45761778 92.80592378 173.68495128 89.60737038 176.91576576 C84.55305517 182.02022772 79.48621395 187.1121299 74.41716003 192.20195007 C60.91963942 205.75862505 47.43829226 219.3313454 33.96543759 232.91253203 C25.10609249 241.84300602 16.23972887 250.76637819 7.35967082 259.67626065 C2.3149296 264.73911011 -2.71812682 269.81321559 -7.74289167 274.89588797 C-10.86325117 278.04706576 -13.99390122 281.18785781 -17.12760353 284.3257618 C-18.58326325 285.78761199 -20.03458917 287.25379176 -21.48132324 288.72447586 C-23.4497984 290.72433371 -25.43290682 292.70841132 -27.420578 294.68916321 C-27.99557594 295.28077171 -28.57057388 295.87238021 -29.16299599 296.48191625 C-30.77852154 298.07288074 -30.77852154 298.07288074 -33.625 300.3125 C-37.13662033 299.85108219 -38.74694304 298.55431371 -41.20318604 296.05470276 C-41.8954982 295.35784363 -42.58781036 294.6609845 -43.30110168 293.94300842 C-44.05026352 293.17363449 -44.79942535 292.40426056 -45.57128906 291.61157227 C-46.36856918 290.80509247 -47.1658493 289.99861267 -47.98728943 289.16769409 C-49.71964462 287.413862 -51.448632 285.65669847 -53.17465973 283.89663887 C-55.90790255 281.11129938 -58.65158956 278.33666386 -61.39862061 275.56492615 C-69.20858368 267.68256635 -77.00084074 259.78284207 -84.77978516 251.86987305 C-89.53663613 247.03132425 -94.3093417 242.20882101 -99.09062958 237.39442253 C-100.90957434 235.55685915 -102.72280726 233.71362344 -104.530159 231.86465645 C-107.06023164 229.27686517 -109.608317 226.70815228 -112.16113281 224.14282227 C-112.90219772 223.37547256 -113.64326263 222.60812286 -114.40678406 221.81752014 C-118.97502275 217.27468435 -122.17418996 215.12737324 -128.625 214.3125 C-135.6302085 215.86006663 -140.1043695 221.14817935 -145.01538086 226.12646484 C-146.43622344 227.56121095 -147.87950179 228.97026123 -149.32617188 230.37890625 C-150.23560547 231.29027344 -151.14503906 232.20164062 -152.08203125 233.140625 C-153.3191687 234.3766748 -153.3191687 234.3766748 -154.58129883 235.63769531 C-157.06216801 238.88466732 -157.96549829 241.27976011 -158.625 245.3125 C-157.55483021 250.67523907 -155.93318752 253.62833145 -152.08352661 257.46870422 C-151.38690928 258.17384644 -151.38690928 258.17384644 -150.67621887 258.89323395 C-149.1279629 260.45433632 -147.56260008 261.99701537 -145.99658203 263.5402832 C-144.87857857 264.66015177 -143.76166247 265.78110678 -142.64575195 266.90306091 C-139.6198125 269.93896048 -136.57856186 272.95907996 -133.53402185 275.97631097 C-130.34844435 279.13803015 -127.17628697 282.31316059 -124.00241089 285.48661804 C-118.67259678 290.81180701 -113.33337231 296.12740668 -107.98779297 301.43676758 C-101.80734941 307.5754473 -95.63909173 313.7261519 -89.47784531 319.88409549 C-82.91638704 326.44195464 -76.34732168 332.99214877 -69.77535009 339.53947043 C-67.88233309 341.42625909 -65.99061424 343.3143415 -64.09912491 345.20266151 C-61.12774288 348.1681434 -58.15121241 351.1283618 -55.17060852 354.08457375 C-54.07725407 355.17048768 -52.98557692 356.25809338 -51.89570236 357.34749985 C-50.4085182 358.83342626 -48.9153416 360.31305699 -47.42044067 361.79121399 C-46.58605028 362.62095387 -45.75165989 363.45069376 -44.89198494 364.30557728 C-40.9321956 367.81111058 -38.13019533 368.53696499 -32.8203125 368.7734375 C-26.38992061 367.42328404 -21.503779 361.48342903 -17.05220032 357.02058411 C-16.31006749 356.28439352 -15.56793466 355.54820294 -14.80331296 354.78970355 C-12.32284212 352.32654813 -9.84954255 349.85631863 -7.3762207 347.38598633 C-5.59735857 345.61638445 -3.81810264 343.84717836 -2.03848267 342.07833862 C2.79069099 337.27537374 7.61324168 332.46581775 12.43373466 327.65414262 C15.44555472 324.64785758 18.45884224 321.64304639 21.47239113 318.63849449 C29.82207286 310.31318428 38.16986835 301.9859929 46.51076031 293.6518755 C47.04393253 293.1191424 47.57710476 292.58640931 48.12643372 292.03753279 C48.66084433 291.50355874 49.19525493 290.96958468 49.7458598 290.4194296 C50.82869836 289.33747796 51.91154002 288.25552943 52.99438477 287.17358398 C53.5315061 286.63690551 54.06862743 286.10022704 54.62202517 285.54728558 C63.32881988 276.84838976 72.04904304 268.1630897 80.77513351 259.48355428 C89.74196884 250.56417214 98.69748538 241.63355516 107.64179164 232.69158 C112.66079657 227.67440667 117.68450518 222.66215533 122.72073936 217.6622715 C127.4565658 212.96050858 132.17673034 208.24356857 136.88677597 203.51595688 C138.61699357 201.784197 140.35234705 200.05755084 142.09318352 198.33646584 C144.47064714 195.98440213 146.82882842 193.61452852 149.18315125 191.23933411 C149.87458164 190.56401652 150.56601204 189.88869893 151.27839488 189.19291717 C155.60379429 184.77742556 158.37165845 180.50972184 159.375 174.3125 C157.9362079 166.21323211 152.2325616 161.49066423 146.5 155.9375 C145.60152344 155.03644531 144.70304687 154.13539063 143.77734375 153.20703125 C137.18809709 146.64771916 137.18809709 146.64771916 128.5 143.9375 C121.41251748 144.7879979 116.57358016 149.68453157 111.78962708 154.570755 Z " fill="#47AF2B" transform="translate(255.625,-0.3125)"/>
</svg>
