<?xml version="1.0" encoding="UTF-8"?>
<svg version="1.1" xmlns="http://www.w3.org/2000/svg" width="512" height="512">
<path d="M0 0 C0.76841721 -0.00705963 1.53683441 -0.01411926 2.32853699 -0.02139282 C57.99640942 -0.41618302 111.04642816 14.27446352 154.6171875 50.203125 C155.17712402 50.66154785 155.73706055 51.1199707 156.31396484 51.59228516 C168.95014766 61.99627519 180.64932692 73.17891693 190.6171875 86.203125 C191.26252441 87.04182129 191.26252441 87.04182129 191.92089844 87.89746094 C198.85014932 96.95122309 205.01142348 106.27906912 210.6171875 116.203125 C210.98553711 116.84411133 211.35388672 117.48509766 211.73339844 118.14550781 C230.92498769 151.75159516 240.11167222 190.2809383 239.9296875 228.828125 C239.92753235 229.65661957 239.9253772 230.48511414 239.92315674 231.3387146 C239.66602284 293.21508988 214.43384355 350.22680893 171.0546875 394.015625 C165.54480407 399.47353606 159.779653 404.48678474 153.6171875 409.203125 C152.77849121 409.84846191 152.77849121 409.84846191 151.92285156 410.50683594 C142.86908941 417.43608682 133.54124338 423.59736098 123.6171875 429.203125 C122.97620117 429.57147461 122.33521484 429.93982422 121.67480469 430.31933594 C102.84779008 441.07096934 82.66071232 448.18426981 61.6171875 453.203125 C60.91658203 453.37038086 60.21597656 453.53763672 59.49414062 453.70996094 C55.22419561 454.70173138 50.94304408 455.49848169 46.6171875 456.203125 C45.41191406 456.40808594 44.20664062 456.61304688 42.96484375 456.82421875 C19.27581709 460.36328095 -6.90070247 459.67694708 -30.3828125 455.203125 C-31.29095703 455.03151855 -32.19910156 454.85991211 -33.13476562 454.68310547 C-93.35378641 442.91072876 -145.77626879 407.77011459 -180.3828125 357.203125 C-183.58501384 352.31906291 -186.51131275 347.28662903 -189.3828125 342.203125 C-189.93533691 341.24164551 -189.93533691 341.24164551 -190.49902344 340.26074219 C-220.54690642 287.6443712 -226.07892193 223.202231 -210.25830078 165.23583984 C-193.99004773 108.88217575 -155.43958819 59.22687549 -104.3828125 30.203125 C-103.70831055 29.81801758 -103.03380859 29.43291016 -102.33886719 29.03613281 C-71.65425824 11.72369796 -35.47530155 0.21935671 0 0 Z M-21.30078125 79.59375 C-37.42161864 99.79772631 -29.83177532 130.98538719 -28.02552652 154.94871521 C-27.69051672 159.41108225 -27.36361223 163.8740451 -27.03536987 168.33691406 C-26.48460691 175.80740504 -25.92715433 183.27737406 -25.36572266 190.74707031 C-24.71766192 199.3706578 -24.08112806 207.99504042 -23.4504205 216.6199131 C-22.84025294 224.95947968 -22.22137907 233.29837915 -21.59875107 241.63702393 C-21.33507199 245.17095095 -21.07454924 248.70508944 -20.81662369 252.23944092 C-20.51337232 256.39014058 -20.20253057 260.54020381 -19.88584518 264.68989944 C-19.77111455 266.20945111 -19.65900159 267.72920308 -19.54972839 269.24915695 C-19.39994498 271.3265495 -19.2406075 273.40299958 -19.07888794 275.47949219 C-18.9922394 276.64003113 -18.90559086 277.80057007 -18.8163166 278.99627686 C-18.13946902 284.53574944 -18.13946902 284.53574944 -15.3828125 289.203125 C-13.76701242 289.30695089 -12.14670626 289.34164743 -10.52758789 289.34838867 C-9.4930397 289.35476852 -8.45849152 289.36114838 -7.39259338 289.36772156 C-5.70359169 289.36939079 -5.70359169 289.36939079 -3.98046875 289.37109375 C-2.83243271 289.37442215 -1.68439667 289.37775055 -0.50157166 289.38117981 C1.93213499 289.38625401 4.36584862 289.38858798 6.79956055 289.38842773 C10.53510942 289.39061354 14.27036285 289.40876246 18.00585938 289.42773438 C20.36458232 289.43066825 22.72330667 289.43265308 25.08203125 289.43359375 C26.7679966 289.44437202 26.7679966 289.44437202 28.48802185 289.45536804 C29.5257222 289.45229141 30.56342255 289.44921478 31.63256836 289.44604492 C32.54888535 289.44746994 33.46520233 289.44889496 34.4092865 289.45036316 C36.82383407 289.41249548 36.82383407 289.41249548 38.6171875 287.203125 C39.05077035 284.83852316 39.34992599 282.56433966 39.57958984 280.17675781 C39.65999197 279.39739491 39.7403941 278.618032 39.82323265 277.81505203 C41.13572092 264.57086366 42.05615509 251.28692683 43.04119539 238.0150938 C43.22043638 235.60229937 43.40055232 233.18957176 43.58094406 230.7768631 C44.21341612 222.31618247 44.84220051 213.8552364 45.46777344 205.39404297 C46.04588583 197.57624131 46.63255085 189.75911285 47.22313368 181.94224429 C47.73430338 175.17089686 48.23907924 168.39909107 48.73916566 161.62691617 C49.03600539 157.60871237 49.33526305 153.59072914 49.64116287 149.57320404 C51.25799624 128.57278766 51.25799624 128.57278766 51.88427734 107.52441406 C51.89544555 106.23719767 51.89544555 106.23719767 51.90683937 104.9239769 C51.82034442 93.59516395 47.73657399 85.50734364 39.8984375 77.32421875 C35.88782419 73.59517247 32.13576198 70.75001841 27.1171875 68.515625 C26.199375 68.09925781 25.2815625 67.68289062 24.3359375 67.25390625 C7.87559893 60.89207999 -9.60463384 67.38551208 -21.30078125 79.59375 Z M-17.6171875 339.69140625 C-23.04426363 347.41178225 -24.56230625 355.92525152 -23.3828125 365.203125 C-21.38176152 373.95328285 -17.21647511 381.63341537 -9.91796875 387.0234375 C-0.92545931 392.62178172 7.04138397 394.30336783 17.6171875 393.203125 C28.61584955 390.11533357 35.26801804 384.65923152 41.13671875 374.96875 C45.04957225 367.65925058 45.90559471 359.45192029 43.9296875 351.40234375 C40.46450177 340.96347174 34.51157868 333.37867075 24.7265625 328.203125 C8.99528687 321.08985254 -6.95069972 326.98820723 -17.6171875 339.69140625 Z " fill="#FFC047" transform="translate(245.3828125,26.796875)"/>
</svg>
